<svg width="14" height="15" viewBox="0 0 14 15" fill="none" xmlns="http://www.w3.org/2000/svg">
<path d="M7 0.5C3.13391 0.5 0 3.63391 0 7.5C0 11.3661 3.13391 14.5 7 14.5C10.8661 14.5 14 11.3661 14 7.5C14 3.63391 10.8661 0.5 7 0.5ZM9.3227 10.5935C9.21262 10.7031 9.09718 10.8179 9.00347 10.9119C8.91907 10.9966 8.85952 11.101 8.82931 11.2142C8.78669 11.374 8.75226 11.5354 8.69468 11.6904L8.20383 13.0128C7.81544 13.0975 7.41351 13.1452 7 13.1452V12.3723C7.0477 12.0161 6.78435 11.3489 6.36125 10.9258C6.1919 10.7564 6.09677 10.5267 6.09677 10.287V9.38351C6.09677 9.05496 5.9198 8.75294 5.63218 8.59403C5.22657 8.36964 4.64964 8.05605 4.25448 7.85706C3.93044 7.69391 3.63069 7.48617 3.36113 7.24314L3.33855 7.22282C3.14578 7.04882 2.97464 6.85228 2.82879 6.63742C2.56403 6.24875 2.13274 5.60944 1.85246 5.19395C2.43024 3.90968 3.47149 2.87831 4.76536 2.31802L5.44306 2.65702C5.74339 2.80718 6.09677 2.58899 6.09677 2.2531V1.93415C6.3223 1.89774 6.55177 1.8746 6.7852 1.86585L7.58399 2.66464C7.7604 2.84105 7.7604 3.12698 7.58399 3.30339L7.45161 3.43548L7.15976 3.72734C7.07169 3.8154 7.07169 3.95851 7.15976 4.04657L7.29214 4.17895C7.3802 4.26702 7.3802 4.41012 7.29214 4.49819L7.06633 4.72399C7.02393 4.76631 6.96647 4.79006 6.90657 4.79004H6.65282C6.59411 4.79004 6.53766 4.8129 6.49532 4.85411L6.21532 5.12649C6.181 5.15991 6.15818 5.20338 6.15017 5.25061C6.14215 5.29784 6.14935 5.3464 6.17073 5.38927L6.61077 6.26964C6.68585 6.4198 6.57661 6.59649 6.40895 6.59649H6.24976C6.19528 6.59649 6.14278 6.57673 6.10185 6.54117L5.83992 6.31367C5.78064 6.26225 5.70901 6.22714 5.63205 6.2118C5.55509 6.19646 5.47547 6.20141 5.40101 6.22617L4.52121 6.51943C4.45404 6.54183 4.39562 6.5848 4.35423 6.64225C4.31284 6.6997 4.29058 6.76871 4.2906 6.83952C4.2906 6.96738 4.36286 7.08395 4.47718 7.14125L4.78992 7.29762C5.05552 7.43056 5.34851 7.49972 5.64544 7.49972C5.94238 7.49972 6.28306 8.27 6.54867 8.40294H8.43274C8.67238 8.40294 8.90185 8.49806 9.07149 8.66742L9.4579 9.05383C9.61933 9.21532 9.71 9.43432 9.70996 9.66266C9.7099 9.83568 9.67566 10.007 9.6092 10.1667C9.54274 10.3265 9.44538 10.4715 9.3227 10.5935ZM11.7702 8.01512C11.6067 7.97419 11.4642 7.87399 11.3708 7.73371L10.8633 6.97246C10.789 6.86124 10.7494 6.73051 10.7494 6.59677C10.7494 6.46304 10.789 6.33231 10.8633 6.22109L11.4162 5.39181C11.4817 5.29387 11.5715 5.21427 11.677 5.16177L12.0434 4.97859C12.425 5.73843 12.6452 6.5931 12.6452 7.5C12.6452 7.74472 12.6243 7.98435 12.5938 8.22089L11.7702 8.01512Z" fill="white"/>
</svg>
