<svg width="38" height="38" viewBox="0 0 38 38" fill="none" xmlns="http://www.w3.org/2000/svg">
<g filter="url(#filter0_d_631_1423)">
<circle cx="19" cy="15" r="15" fill="#082340"/>
<circle cx="18.9995" cy="15" r="6" fill="white"/>
<path fill-rule="evenodd" clip-rule="evenodd" d="M13.1541 7C12.0129 7 11.1685 7.99883 11.2063 9.08203C11.2426 10.1227 11.1954 11.4705 10.8561 12.5696C10.5156 13.6719 9.94016 14.3704 9 14.46V15.4722C9.94016 15.562 10.5156 16.2602 10.8561 17.3625C11.1954 18.4617 11.2425 19.8095 11.2062 20.8502C11.1684 21.9332 12.0129 22.9322 13.1542 22.9322H24.8475C25.9886 22.9322 26.8329 21.9334 26.7951 20.8502C26.7588 19.8095 26.8059 18.4617 27.1452 17.3625C27.4857 16.2602 28.0598 15.5618 29 15.4722V14.46C28.0598 14.3702 27.4858 13.672 27.1452 12.5696C26.8059 11.4707 26.7588 10.1227 26.7951 9.08203C26.8329 7.99898 25.9886 7 24.8475 7H13.1539H13.1541ZM22.5593 16.8073C22.5593 18.2988 21.4468 19.2034 19.6005 19.2034H16.4576C16.3677 19.2034 16.2815 19.1677 16.2179 19.1041C16.1543 19.0405 16.1186 18.9543 16.1186 18.8644V11.0678C16.1186 10.9779 16.1543 10.8917 16.2179 10.8281C16.2815 10.7645 16.3677 10.7288 16.4576 10.7288H19.5826C21.1221 10.7288 22.1325 11.5627 22.1325 12.843C22.1325 13.7417 21.4528 14.5462 20.5869 14.6871V14.734C21.7656 14.8633 22.5593 15.6797 22.5593 16.8073ZM19.2578 11.8034H17.4658V14.3346H18.9751C20.1419 14.3346 20.7853 13.8648 20.7853 13.025C20.7852 12.238 20.232 11.8034 19.2578 11.8034ZM17.4658 15.339V18.1285H19.3237C20.5386 18.1285 21.1821 17.641 21.1821 16.7249C21.1821 15.8088 20.5205 15.3388 19.2456 15.3388H17.4658V15.339Z" fill="#7952B3"/>
</g>
<defs>
<filter id="filter0_d_631_1423" x="0" y="0" width="38" height="38" filterUnits="userSpaceOnUse" color-interpolation-filters="sRGB">
<feFlood flood-opacity="0" result="BackgroundImageFix"/>
<feColorMatrix in="SourceAlpha" type="matrix" values="0 0 0 0 0 0 0 0 0 0 0 0 0 0 0 0 0 0 127 0" result="hardAlpha"/>
<feOffset dy="4"/>
<feGaussianBlur stdDeviation="2"/>
<feComposite in2="hardAlpha" operator="out"/>
<feColorMatrix type="matrix" values="0 0 0 0 0 0 0 0 0 0 0 0 0 0 0 0 0 0 0.25 0"/>
<feBlend mode="normal" in2="BackgroundImageFix" result="effect1_dropShadow_631_1423"/>
<feBlend mode="normal" in="SourceGraphic" in2="effect1_dropShadow_631_1423" result="shape"/>
</filter>
</defs>
</svg>
