<svg width="30" height="30" viewBox="0 0 30 30" fill="none" xmlns="http://www.w3.org/2000/svg">
<circle cx="15" cy="15" r="15" fill="#082340"/>
<path d="M21.4028 19.4027C21.6233 19.6232 21.4669 20 21.1554 20H15.35C15.1564 20 15 20.1564 15 20.35V26.1554C15 26.4669 14.6232 26.6233 14.4027 26.4028L8.1365 20.1365C8.049 20.049 8 19.93 8 19.8064V13.35C8 13.1563 8.15633 13 8.35 13H15L21.4028 19.4027Z" fill="white"/>
<path d="M15 13L8.59733 6.59734C8.37683 6.37684 8.53316 6 8.84467 6H21.6501C21.8438 6 22.0001 6.15633 22.0001 6.35V12.65C22.0001 12.8437 21.8438 13 21.6501 13H15Z" fill="white"/>
</svg>
