<svg width="38" height="38" viewBox="0 0 38 38" fill="none" xmlns="http://www.w3.org/2000/svg">
<g filter="url(#filter0_d_631_1406)">
<circle cx="19" cy="15" r="15" fill="#082340"/>
<path d="M19.0612 17.076C20.2077 17.076 21.137 16.1466 21.137 15.0002C21.137 13.8537 20.2077 12.9243 19.0612 12.9243C17.9147 12.9243 16.9854 13.8537 16.9854 15.0002C16.9854 16.1466 17.9147 17.076 19.0612 17.076Z" fill="#61DAFB"/>
<path d="M19.0615 19.2532C25.2132 19.2532 30.2002 17.3491 30.2002 15.0003C30.2002 12.6514 25.2132 10.7473 19.0615 10.7473C12.9098 10.7473 7.92285 12.6514 7.92285 15.0003C7.92285 17.3491 12.9098 19.2532 19.0615 19.2532Z" stroke="#61DAFB" stroke-width="1.19906"/>
<path d="M15.3788 17.1266C18.4547 22.4542 22.5971 25.8209 24.6313 24.6465C26.6655 23.4721 25.821 18.2012 22.7451 12.8737C19.6693 7.54612 15.5268 4.17935 13.4926 5.35377C11.4585 6.52819 12.3029 11.7991 15.3788 17.1266Z" stroke="#61DAFB" stroke-width="1.19906"/>
<path d="M15.3788 12.8737C12.3029 18.2012 11.4585 23.4721 13.4926 24.6465C15.5268 25.8209 19.6693 22.4541 22.7451 17.1266C25.821 11.7991 26.6654 6.52817 24.6313 5.35375C22.5971 4.17933 18.4547 7.54611 15.3788 12.8737Z" stroke="#61DAFB" stroke-width="1.19906"/>
</g>
<defs>
<filter id="filter0_d_631_1406" x="0" y="0" width="38" height="38" filterUnits="userSpaceOnUse" color-interpolation-filters="sRGB">
<feFlood flood-opacity="0" result="BackgroundImageFix"/>
<feColorMatrix in="SourceAlpha" type="matrix" values="0 0 0 0 0 0 0 0 0 0 0 0 0 0 0 0 0 0 127 0" result="hardAlpha"/>
<feOffset dy="4"/>
<feGaussianBlur stdDeviation="2"/>
<feComposite in2="hardAlpha" operator="out"/>
<feColorMatrix type="matrix" values="0 0 0 0 0 0 0 0 0 0 0 0 0 0 0 0 0 0 0.25 0"/>
<feBlend mode="normal" in2="BackgroundImageFix" result="effect1_dropShadow_631_1406"/>
<feBlend mode="normal" in="SourceGraphic" in2="effect1_dropShadow_631_1406" result="shape"/>
</filter>
</defs>
</svg>
