<svg width="38" height="38" viewBox="0 0 38 38" fill="none" xmlns="http://www.w3.org/2000/svg">
<g filter="url(#filter0_d_631_1412)">
<circle cx="18.9995" cy="15" r="15" fill="#082340"/>
<path d="M14.5847 15.4856C13.452 15.4856 12.5287 14.555 12.5287 13.4142C12.5287 12.2734 13.452 11.3428 14.5847 11.3428C15.7173 11.3428 16.6406 12.2734 16.6406 13.4142C16.6406 14.5542 15.7165 15.4856 14.5847 15.4856ZM9.64819 19.5982C8.51716 19.5957 7.59636 18.6611 7.59962 17.5203C7.60026 16.9731 7.8178 16.4485 8.20454 16.0615C8.59129 15.6744 9.1157 15.4565 9.66286 15.4554C10.7947 15.4578 11.7155 16.3925 11.7114 17.5341C11.7104 18.0811 11.4927 18.6053 11.106 18.9922C10.7193 19.379 10.1951 19.5969 9.64819 19.5982ZM28.3591 19.5982C27.8121 19.5993 27.2868 19.3835 26.8984 18.9982C26.5101 18.6129 26.2902 18.0894 26.2869 17.5423C26.2812 16.3998 27.198 15.4619 28.3282 15.4562C28.875 15.4553 29.3999 15.6711 29.7881 16.0562C30.1763 16.4413 30.3961 16.9645 30.3996 17.5113C30.4061 18.6529 29.4886 19.5917 28.3591 19.5982Z" fill="white"/>
<path d="M24.5054 11.4633C23.9464 11.2889 23.3491 11.2164 22.7632 11.1528C21.8571 11.055 21.4961 10.7014 21.3429 9.79362C21.2566 9.28677 21.136 8.76689 20.9168 8.30649C20.4987 7.43051 19.5193 7.03774 18.5357 7.26183C17.7046 7.45169 17.0144 8.27878 16.9761 9.12787C16.9321 10.0959 17.4862 10.923 18.4379 11.2082C18.8902 11.3443 19.371 11.4119 19.8428 11.447C20.709 11.5097 20.9983 11.768 21.2321 12.1624C21.3804 12.4118 21.523 12.6571 21.523 13.3986C21.523 14.1409 21.3788 14.3862 21.2321 14.6347C20.9983 15.0291 20.709 15.2866 19.8428 15.351C19.3701 15.3852 18.8894 15.4537 18.4379 15.5898C17.4862 15.8758 16.9321 16.7012 16.9761 17.6709C17.0144 18.5192 17.7054 19.3463 18.5357 19.5362C19.5193 19.7611 20.4987 19.3675 20.9168 18.4915C21.1368 18.0319 21.2566 17.5112 21.3429 17.0044C21.4969 16.0966 21.8579 15.7438 22.7632 15.6452C23.35 15.5816 23.9464 15.5083 24.5054 15.3339C25.3537 15.0691 25.8638 14.2778 25.8638 13.3986C25.8638 12.5202 25.3537 11.7297 24.5054 11.4633Z" fill="#F44250"/>
</g>
<defs>
<filter id="filter0_d_631_1412" x="-0.000488281" y="0" width="38.0005" height="38" filterUnits="userSpaceOnUse" color-interpolation-filters="sRGB">
<feFlood flood-opacity="0" result="BackgroundImageFix"/>
<feColorMatrix in="SourceAlpha" type="matrix" values="0 0 0 0 0 0 0 0 0 0 0 0 0 0 0 0 0 0 127 0" result="hardAlpha"/>
<feOffset dy="4"/>
<feGaussianBlur stdDeviation="2"/>
<feComposite in2="hardAlpha" operator="out"/>
<feColorMatrix type="matrix" values="0 0 0 0 0 0 0 0 0 0 0 0 0 0 0 0 0 0 0.25 0"/>
<feBlend mode="normal" in2="BackgroundImageFix" result="effect1_dropShadow_631_1412"/>
<feBlend mode="normal" in="SourceGraphic" in2="effect1_dropShadow_631_1412" result="shape"/>
</filter>
</defs>
</svg>
