<svg width="38" height="38" viewBox="0 0 38 38" fill="none" xmlns="http://www.w3.org/2000/svg">
<g filter="url(#filter0_d_1014_1797)">
<circle cx="19" cy="15" r="15" fill="#082340"/>
<path d="M27.9437 15.4844C27.1762 15.4885 26.5092 15.6733 25.9506 15.9466C25.7457 15.5407 25.5407 15.1791 25.5046 14.9138C25.4644 14.6044 25.4162 14.4156 25.4644 14.0459C25.5126 13.6762 25.7296 13.1498 25.7256 13.1096C25.7216 13.0694 25.6774 12.8805 25.2353 12.8765C24.7933 12.8725 24.4116 12.9609 24.3674 13.0774C24.3232 13.194 24.2388 13.4592 24.1825 13.7324C24.1062 14.1343 23.2985 15.5688 22.8364 16.3203C22.6877 16.0269 22.5591 15.7698 22.531 15.5648C22.4908 15.2554 22.4426 15.0665 22.4908 14.6968C22.539 14.3272 22.756 13.8007 22.752 13.7606C22.7479 13.7204 22.7037 13.5315 22.2617 13.5275C21.8197 13.5235 21.438 13.6119 21.3938 13.7284C21.3496 13.8449 21.3013 14.1182 21.2089 14.3834C21.1165 14.6486 20.0436 17.0436 19.7623 17.6624C19.6176 17.9799 19.4931 18.233 19.4047 18.4058C19.4047 18.4058 19.4006 18.4179 19.3886 18.438C19.3122 18.5866 19.268 18.667 19.268 18.667C19.268 18.667 19.268 18.667 19.268 18.671C19.2078 18.7795 19.1435 18.88 19.1113 18.88C19.0872 18.88 19.043 18.5907 19.1193 18.1969C19.2801 17.3651 19.6618 16.0711 19.6578 16.0269C19.6578 16.0028 19.7301 15.7778 19.4087 15.6613C19.0952 15.5447 18.9827 15.7376 18.9546 15.7376C18.9265 15.7376 18.9064 15.8059 18.9064 15.8059C18.9064 15.8059 19.256 14.3513 18.2393 14.3513C17.6044 14.3513 16.7284 15.0464 16.2944 15.6733C16.0212 15.822 15.4385 16.1394 14.8157 16.481C14.5786 16.6136 14.3335 16.7462 14.1044 16.8708C14.0883 16.8547 14.0723 16.8346 14.0562 16.8186C12.8266 15.5045 10.5522 14.5763 10.6486 12.8122C10.6848 12.1693 10.9058 10.4816 15.0166 8.43218C18.4001 6.76455 21.0924 7.22667 21.5585 8.25136C22.2256 9.71405 20.1159 12.4305 16.6199 12.8243C15.2858 12.973 14.5866 12.4586 14.4098 12.2657C14.225 12.0648 14.1968 12.0527 14.1285 12.0929C14.016 12.1532 14.0883 12.334 14.1285 12.4385C14.233 12.7118 14.663 13.194 15.3903 13.4311C16.0332 13.64 17.5964 13.7565 19.489 13.0252C21.6067 12.2054 23.2623 9.92702 22.7761 8.01829C22.2899 6.08143 19.0751 5.4425 16.0332 6.52345C14.225 7.16639 12.264 8.17902 10.8535 9.49705C9.17786 11.0642 8.91265 12.4265 9.02115 12.9971C9.41093 15.0223 12.2037 16.3404 13.3208 17.3168C13.2646 17.349 13.2123 17.3771 13.1681 17.4012C12.6096 17.6785 10.4798 18.7916 9.94939 19.969C9.34663 21.3031 10.0458 22.2594 10.5079 22.388C11.9425 22.7859 13.4173 22.0706 14.2089 20.8892C15.0005 19.7078 14.9041 18.1727 14.5384 17.4695C14.5344 17.4615 14.5304 17.4535 14.5223 17.4454C14.667 17.361 14.8157 17.2726 14.9603 17.1882C15.2456 17.0195 15.5269 16.8628 15.768 16.7342C15.6314 17.1079 15.5309 17.5539 15.4827 18.1969C15.4224 18.9523 15.7318 19.9328 16.1377 20.3186C16.3185 20.4873 16.5315 20.4914 16.6681 20.4914C17.1423 20.4914 17.3553 20.0976 17.5924 19.6314C17.8817 19.0608 18.1429 18.3978 18.1429 18.3978C18.1429 18.3978 17.8174 20.19 18.7014 20.19C19.0229 20.19 19.3484 19.7721 19.4931 19.5591C19.4931 19.5631 19.4931 19.5631 19.4931 19.5631C19.4931 19.5631 19.5011 19.5511 19.5172 19.5229C19.5493 19.4707 19.5694 19.4385 19.5694 19.4385C19.5694 19.4385 19.5694 19.4345 19.5694 19.4305C19.698 19.2055 19.9873 18.6951 20.4173 17.8473C20.9718 16.7543 21.5063 15.388 21.5063 15.388C21.5063 15.388 21.5545 15.7215 21.7192 16.2761C21.8157 16.6016 22.0166 16.9592 22.1773 17.3048C22.0487 17.4856 21.9684 17.5861 21.9684 17.5861C21.9684 17.5861 21.9684 17.5861 21.9724 17.5901C21.8679 17.7267 21.7554 17.8754 21.6308 18.0201C21.1928 18.5424 20.6704 19.1412 20.5981 19.314C20.5137 19.5189 20.5338 19.6676 20.6946 19.7881C20.8111 19.8765 21.02 19.8886 21.233 19.8765C21.6268 19.8484 21.9041 19.752 22.0407 19.6917C22.2537 19.6153 22.5028 19.4988 22.7359 19.326C23.1659 19.0086 23.4271 18.5545 23.4029 17.9558C23.3909 17.6262 23.2824 17.2967 23.1498 16.9873C23.19 16.9311 23.2261 16.8748 23.2663 16.8186C23.9454 15.826 24.4718 14.737 24.4718 14.737C24.4718 14.737 24.5201 15.0706 24.6848 15.6251C24.7652 15.9064 24.9299 16.2118 25.0746 16.5091C24.4357 17.0275 24.0419 17.6303 23.9012 18.0241C23.6481 18.7554 23.845 19.0849 24.2187 19.1613C24.3875 19.1974 24.6286 19.1171 24.8054 19.0407C25.0304 18.9684 25.2956 18.8438 25.5488 18.659C25.9787 18.3415 26.3926 17.8995 26.3685 17.3008C26.3565 17.0275 26.2841 16.7583 26.1837 16.4971C26.7262 16.2721 27.4254 16.1475 28.3174 16.252C30.2302 16.477 30.6079 17.6704 30.5356 18.1727C30.4633 18.675 30.0614 18.9483 29.9288 19.0327C29.7962 19.1171 29.752 19.1452 29.7641 19.2055C29.7801 19.2939 29.8444 19.2899 29.9569 19.2738C30.1137 19.2457 30.9615 18.8679 30.9977 17.9437C31.058 16.7623 29.9328 15.4724 27.9437 15.4844ZM13.1882 20.4592C12.5533 21.1504 11.6693 21.4116 11.2875 21.1906C10.8776 20.9535 11.0384 19.9328 11.8179 19.2015C12.2921 18.7554 12.9029 18.3415 13.3088 18.0884C13.4012 18.0321 13.5378 17.9517 13.7026 17.8513C13.7307 17.8352 13.7468 17.8272 13.7468 17.8272C13.7789 17.8071 13.8111 17.787 13.8432 17.7669C14.1285 18.8117 13.8553 19.7319 13.1882 20.4592ZM17.8094 17.3168C17.5883 17.8553 17.1262 19.2336 16.8449 19.1573C16.6038 19.093 16.4552 18.0482 16.7967 17.0155C16.9695 16.4971 17.3352 15.8783 17.5482 15.6371C17.8937 15.2514 18.2755 15.1228 18.3679 15.2795C18.4844 15.4844 17.946 16.9793 17.8094 17.3168ZM21.6228 19.1412C21.5304 19.1894 21.442 19.2215 21.4018 19.1974C21.3737 19.1814 21.442 19.1171 21.442 19.1171C21.442 19.1171 21.9202 18.6027 22.109 18.3696C22.2175 18.233 22.3461 18.0723 22.4827 17.8915C22.4827 17.9075 22.4827 17.9276 22.4827 17.9437C22.4827 18.5585 21.888 18.9724 21.6228 19.1412ZM24.5643 18.4701C24.4959 18.4219 24.508 18.2612 24.737 17.7589C24.8255 17.562 25.0344 17.2324 25.392 16.915C25.4322 17.0436 25.4604 17.1682 25.4563 17.2847C25.4523 18.0602 24.8978 18.3496 24.5643 18.4701Z" fill="#CD6799"/>
</g>
<defs>
<filter id="filter0_d_1014_1797" x="0" y="0" width="38" height="38" filterUnits="userSpaceOnUse" color-interpolation-filters="sRGB">
<feFlood flood-opacity="0" result="BackgroundImageFix"/>
<feColorMatrix in="SourceAlpha" type="matrix" values="0 0 0 0 0 0 0 0 0 0 0 0 0 0 0 0 0 0 127 0" result="hardAlpha"/>
<feOffset dy="4"/>
<feGaussianBlur stdDeviation="2"/>
<feComposite in2="hardAlpha" operator="out"/>
<feColorMatrix type="matrix" values="0 0 0 0 0 0 0 0 0 0 0 0 0 0 0 0 0 0 0.25 0"/>
<feBlend mode="normal" in2="BackgroundImageFix" result="effect1_dropShadow_1014_1797"/>
<feBlend mode="normal" in="SourceGraphic" in2="effect1_dropShadow_1014_1797" result="shape"/>
</filter>
</defs>
</svg>
