<svg width="189" height="88" viewBox="0 0 189 88" fill="none" xmlns="http://www.w3.org/2000/svg">
<g filter="url(#filter0_d_1249_1784)">
<path d="M30.9819 31.424C30.9819 31.9147 30.5552 32.16 29.7019 32.16C28.8485 32.16 28.4219 31.9147 28.4219 31.424V24.096C27.3339 23.9253 26.5232 23.4987 25.9899 22.816C25.4565 22.1333 25.0192 21.12 24.6779 19.776L22.1819 9.92C21.9899 9.23733 21.8939 8.84266 21.8939 8.736C21.8939 8.352 22.2885 8.16 23.0779 8.16C23.8885 8.16 24.3472 8.40533 24.4539 8.896L27.1739 19.424C27.4085 20.32 27.6859 20.96 28.0059 21.344C28.3472 21.728 28.9125 21.92 29.7019 21.92C30.4912 21.92 31.0459 21.728 31.3659 21.344C31.7072 20.96 31.9952 20.32 32.2299 19.424L34.9499 8.896C35.0565 8.40533 35.5045 8.16 36.2939 8.16C37.1045 8.16 37.5099 8.352 37.5099 8.736C37.5099 8.84266 37.4139 9.23733 37.2219 9.92L34.7259 19.776C34.3845 21.12 33.9472 22.1333 33.4139 22.816C32.8805 23.4987 32.0699 23.9253 30.9819 24.096V31.424ZM51.8866 27.744V17.056C51.8866 15.392 50.4253 14.56 47.5026 14.56C44.6013 14.56 43.1506 15.392 43.1506 17.056V27.744C43.1506 29.408 44.6013 30.24 47.5026 30.24C50.4253 30.24 51.8866 29.408 51.8866 27.744ZM54.4466 17.376V27.424C54.4466 29.1947 53.8173 30.4853 52.5586 31.296C51.3 32.0853 49.6253 32.48 47.5346 32.48C45.444 32.48 43.7586 32.0853 42.4786 31.296C41.22 30.4853 40.5906 29.1947 40.5906 27.424V17.376C40.5906 15.6053 41.22 14.3253 42.4786 13.536C43.7373 12.7253 45.412 12.32 47.5026 12.32C49.5933 12.32 51.268 12.7253 52.5266 13.536C53.8066 14.3253 54.4466 15.6053 54.4466 17.376ZM75.0166 13.376V27.424C75.0166 29.1947 74.3766 30.4853 73.0966 31.296C71.838 32.0853 70.1633 32.48 68.0726 32.48C65.982 32.48 64.3073 32.0853 63.0486 31.296C61.79 30.4853 61.1606 29.1947 61.1606 27.424V13.376C61.1606 12.8853 61.5873 12.64 62.4406 12.64C63.294 12.64 63.7206 12.8853 63.7206 13.376V27.744C63.7206 29.408 65.1713 30.24 68.0726 30.24C70.9953 30.24 72.4566 29.408 72.4566 27.744V13.376C72.4566 12.8853 72.8833 12.64 73.7366 12.64C74.59 12.64 75.0166 12.8853 75.0166 13.376ZM85.9069 9.056V12.8H89.2669C89.6935 12.8 89.9069 13.1733 89.9069 13.92C89.9069 14.6667 89.6935 15.04 89.2669 15.04H85.9069V28.256C85.9069 28.9387 86.0669 29.5787 86.3869 30.176C86.7069 30.752 86.8669 31.0507 86.8669 31.072C86.8669 31.328 86.6642 31.6053 86.2589 31.904C85.8535 32.1813 85.5122 32.32 85.2349 32.32C84.7869 32.32 84.3602 31.936 83.9549 31.168C83.5495 30.3787 83.3469 29.5147 83.3469 28.576V15.04H80.7869C80.3602 15.04 80.1469 14.6667 80.1469 13.92C80.1469 13.1733 80.3602 12.8 80.7869 12.8H83.3469V9.056C83.3469 8.56533 83.7735 8.32 84.6269 8.32C85.4802 8.32 85.9069 8.56533 85.9069 9.056ZM108.235 13.376V27.424C108.235 29.1947 107.595 30.4853 106.315 31.296C105.057 32.0853 103.382 32.48 101.291 32.48C99.2007 32.48 97.526 32.0853 96.2674 31.296C95.0087 30.4853 94.3794 29.1947 94.3794 27.424V13.376C94.3794 12.8853 94.806 12.64 95.6594 12.64C96.5127 12.64 96.9394 12.8853 96.9394 13.376V27.744C96.9394 29.408 98.39 30.24 101.291 30.24C104.214 30.24 105.675 29.408 105.675 27.744V13.376C105.675 12.8853 106.102 12.64 106.955 12.64C107.809 12.64 108.235 12.8853 108.235 13.376ZM122.23 15.04H119.446C119.019 15.04 118.806 14.6667 118.806 13.92C118.806 13.1733 119.019 12.8 119.446 12.8H122.23C124.32 12.8 125.995 13.2053 127.254 14.016C128.512 14.8053 129.142 16.0853 129.142 17.856V27.424C129.142 29.1947 128.502 30.4853 127.222 31.296C125.963 32.0853 124.288 32.48 122.198 32.48C120.107 32.48 118.432 32.0853 117.174 31.296C115.915 30.4853 115.286 29.1947 115.286 27.424V7.136C115.286 6.64533 115.712 6.4 116.566 6.4C117.419 6.4 117.846 6.64533 117.846 7.136V27.744C117.846 29.408 119.296 30.24 122.198 30.24C125.12 30.24 126.582 29.408 126.582 27.744V17.536C126.582 15.872 125.131 15.04 122.23 15.04ZM149.544 17.312V18.272C149.544 20.0853 149.171 21.3333 148.424 22.016C147.677 22.6987 146.312 23.136 144.328 23.328L138.088 23.936V27.744C138.088 29.408 139.475 30.24 142.248 30.24C145.405 30.24 146.984 29.5147 146.984 28.064V26.848C146.984 26.3573 147.411 26.112 148.264 26.112C149.117 26.112 149.544 26.3573 149.544 26.848V27.744C149.544 30.9013 147.197 32.48 142.504 32.48C140.435 32.48 138.749 32.0747 137.448 31.264C136.168 30.4533 135.528 29.1733 135.528 27.424V17.376C135.528 15.6053 136.211 14.3253 137.576 13.536C138.941 12.7253 140.723 12.32 142.92 12.32C145.117 12.32 146.771 12.704 147.88 13.472C148.989 14.24 149.544 15.52 149.544 17.312ZM138.088 17.056V21.696L144.104 21.088C145.32 20.96 146.099 20.704 146.44 20.32C146.803 19.936 146.984 19.2533 146.984 18.272V17.056C146.984 15.392 145.501 14.56 142.536 14.56C139.571 14.56 138.088 15.392 138.088 17.056ZM6.61875 48.896V71.424C6.61875 71.9147 6.19208 72.16 5.33875 72.16C4.48542 72.16 4.05875 71.9147 4.05875 71.424V48.896C4.05875 48.4053 4.48542 48.16 5.33875 48.16C6.19208 48.16 6.61875 48.4053 6.61875 48.896ZM27.8448 57.376V71.424C27.8448 71.9147 27.4181 72.16 26.5648 72.16C25.7114 72.16 25.2848 71.9147 25.2848 71.424V57.056C25.2848 55.392 23.8234 54.56 20.9008 54.56C17.9994 54.56 16.5488 55.392 16.5488 57.056V71.424C16.5488 71.9147 16.1221 72.16 15.2688 72.16C14.4154 72.16 13.9888 71.9147 13.9888 71.424V57.376C13.9888 55.6053 14.6181 54.3253 15.8768 53.536C17.1354 52.7253 18.8101 52.32 20.9008 52.32C22.9914 52.32 24.6661 52.7253 25.9248 53.536C27.2048 54.3253 27.8448 55.6053 27.8448 57.376ZM33.935 52.8H36.175V50.976C36.175 47.6053 38.3723 45.92 42.767 45.92H43.887C44.3137 45.92 44.527 46.2933 44.527 47.04C44.527 47.7867 44.3137 48.16 43.887 48.16H42.767C40.079 48.16 38.735 48.992 38.735 50.656V52.8H42.415C42.8417 52.8 43.055 53.1733 43.055 53.92C43.055 54.6667 42.8417 55.04 42.415 55.04H38.735V75.296C38.735 76.6613 38.5323 77.7813 38.127 78.656C37.743 79.552 37.3163 80 36.847 80C36.5697 80 36.2283 79.8507 35.823 79.552C35.4177 79.2747 35.215 79.008 35.215 78.752C35.215 78.688 35.3003 78.528 35.471 78.272C35.9403 77.4613 36.175 76.3627 36.175 74.976V55.04H33.935C33.5083 55.04 33.295 54.6667 33.295 53.92C33.295 53.1733 33.5083 52.8 33.935 52.8ZM58.1835 67.744V57.056C58.1835 55.392 56.7222 54.56 53.7995 54.56C50.8982 54.56 49.4475 55.392 49.4475 57.056V67.744C49.4475 69.408 50.8982 70.24 53.7995 70.24C56.7222 70.24 58.1835 69.408 58.1835 67.744ZM60.7435 57.376V67.424C60.7435 69.1947 60.1142 70.4853 58.8555 71.296C57.5968 72.0853 55.9222 72.48 53.8315 72.48C51.7408 72.48 50.0555 72.0853 48.7755 71.296C47.5168 70.4853 46.8875 69.1947 46.8875 67.424V57.376C46.8875 55.6053 47.5168 54.3253 48.7755 53.536C50.0342 52.7253 51.7088 52.32 53.7995 52.32C55.8902 52.32 57.5648 52.7253 58.8235 53.536C60.1035 54.3253 60.7435 55.6053 60.7435 57.376ZM91.2373 67.744V64.608C91.2373 63.584 91.0559 62.8587 90.6933 62.432C90.3519 62.0053 89.6159 61.792 88.4853 61.792H86.0213C85.5946 61.792 85.3813 61.4187 85.3813 60.672C85.3813 59.9253 85.5946 59.552 86.0213 59.552H88.4853C90.3626 59.552 91.7173 59.936 92.5493 60.704C93.3813 61.472 93.7973 62.7733 93.7973 64.608V67.424C93.7973 69.1947 93.1039 70.4853 91.7173 71.296C90.3519 72.0853 88.5386 72.48 86.2773 72.48C81.4133 72.48 78.9813 70.7947 78.9813 67.424V52.896C78.9813 51.1253 79.6426 49.8453 80.9653 49.056C82.3093 48.2453 84.0693 47.84 86.2453 47.84C90.9599 47.84 93.3173 49.5253 93.3173 52.896V54.656C93.3173 55.1467 92.8906 55.392 92.0373 55.392C91.1839 55.392 90.7573 55.1467 90.7573 54.656V52.576C90.7573 50.912 89.2213 50.08 86.1493 50.08C83.0773 50.08 81.5413 50.912 81.5413 52.576V67.744C81.5413 69.408 83.1519 70.24 86.3733 70.24C89.6159 70.24 91.2373 69.408 91.2373 67.744ZM107.96 72H104.216C102.338 72 100.984 71.616 100.152 70.848C99.3198 70.08 98.9038 68.7787 98.9038 66.944V66.688C98.9038 64.8747 99.2771 63.6267 100.024 62.944C100.77 62.2613 102.104 61.824 104.024 61.632L109.56 61.088V57.536C109.56 55.872 108.109 55.04 105.208 55.04H100.824C100.397 55.04 100.184 54.6667 100.184 53.92C100.184 53.1733 100.397 52.8 100.824 52.8H105.208C107.298 52.8 108.973 53.2053 110.232 54.016C111.49 54.8053 112.12 56.0853 112.12 57.856V67.296C112.12 68.6827 112.365 69.7813 112.856 70.592C113.005 70.848 113.08 71.008 113.08 71.072C113.08 71.328 112.877 71.6053 112.472 71.904C112.066 72.1813 111.725 72.32 111.448 72.32C110.978 72.32 110.541 71.8827 110.136 71.008C109.752 70.112 109.56 68.9813 109.56 67.616V63.328L104.216 63.872C103.064 64 102.317 64.256 101.976 64.64C101.634 65.024 101.464 65.7067 101.464 66.688V66.944C101.464 67.968 101.634 68.6933 101.976 69.12C102.338 69.5467 103.085 69.76 104.216 69.76H107.96C108.386 69.76 108.6 70.1333 108.6 70.88C108.6 71.6267 108.386 72 107.96 72ZM122.985 49.056V52.8H126.345C126.772 52.8 126.985 53.1733 126.985 53.92C126.985 54.6667 126.772 55.04 126.345 55.04H122.985V68.256C122.985 68.9387 123.145 69.5787 123.465 70.176C123.785 70.752 123.945 71.0507 123.945 71.072C123.945 71.328 123.742 71.6053 123.337 71.904C122.932 72.1813 122.59 72.32 122.313 72.32C121.865 72.32 121.438 71.936 121.033 71.168C120.628 70.3787 120.425 69.5147 120.425 68.576V55.04H117.865C117.438 55.04 117.225 54.6667 117.225 53.92C117.225 53.1733 117.438 52.8 117.865 52.8H120.425V49.056C120.425 48.5653 120.852 48.32 121.705 48.32C122.558 48.32 122.985 48.5653 122.985 49.056ZM145.634 57.376V71.424C145.634 71.9147 145.207 72.16 144.354 72.16C143.5 72.16 143.074 71.9147 143.074 71.424V57.056C143.074 55.392 141.612 54.56 138.69 54.56C135.788 54.56 134.338 55.392 134.338 57.056V71.424C134.338 71.9147 133.911 72.16 133.058 72.16C132.204 72.16 131.778 71.9147 131.778 71.424V47.136C131.778 46.6453 132.204 46.4 133.058 46.4C133.911 46.4 134.338 46.6453 134.338 47.136V53.632C135.511 52.7573 137.047 52.32 138.946 52.32C140.866 52.32 142.455 52.7253 143.714 53.536C144.994 54.3253 145.634 55.6053 145.634 57.376ZM166.372 57.312V58.272C166.372 60.0853 165.999 61.3333 165.252 62.016C164.506 62.6987 163.14 63.136 161.156 63.328L154.916 63.936V67.744C154.916 69.408 156.303 70.24 159.076 70.24C162.234 70.24 163.812 69.5147 163.812 68.064V66.848C163.812 66.3573 164.239 66.112 165.092 66.112C165.946 66.112 166.372 66.3573 166.372 66.848V67.744C166.372 70.9013 164.026 72.48 159.332 72.48C157.263 72.48 155.578 72.0747 154.276 71.264C152.996 70.4533 152.356 69.1733 152.356 67.424V57.376C152.356 55.6053 153.039 54.3253 154.404 53.536C155.77 52.7253 157.551 52.32 159.748 52.32C161.946 52.32 163.599 52.704 164.708 53.472C165.818 54.24 166.372 55.52 166.372 57.312ZM154.916 57.056V61.696L160.932 61.088C162.148 60.96 162.927 60.704 163.268 60.32C163.631 59.936 163.812 59.2533 163.812 58.272V57.056C163.812 55.392 162.33 54.56 159.364 54.56C156.399 54.56 154.916 55.392 154.916 57.056ZM181.595 58.656V57.056C181.595 55.392 180.603 54.56 178.619 54.56C176.635 54.56 175.643 55.392 175.643 57.056V71.744C175.643 72.2347 175.216 72.48 174.363 72.48C173.509 72.48 173.083 72.2347 173.083 71.744V57.376C173.083 55.6053 173.584 54.3253 174.587 53.536C175.611 52.7253 176.955 52.32 178.619 52.32C182.309 52.32 184.155 53.984 184.155 57.312V58.656C184.155 59.1467 183.728 59.392 182.875 59.392C182.021 59.392 181.595 59.1467 181.595 58.656Z" fill="#202020"/>
</g>
<defs>
<filter id="filter0_d_1249_1784" x="-4" y="0" width="193" height="88" filterUnits="userSpaceOnUse" color-interpolation-filters="sRGB">
<feFlood flood-opacity="0" result="BackgroundImageFix"/>
<feColorMatrix in="SourceAlpha" type="matrix" values="0 0 0 0 0 0 0 0 0 0 0 0 0 0 0 0 0 0 127 0" result="hardAlpha"/>
<feOffset dy="4"/>
<feGaussianBlur stdDeviation="2"/>
<feComposite in2="hardAlpha" operator="out"/>
<feColorMatrix type="matrix" values="0 0 0 0 0 0 0 0 0 0 0 0 0 0 0 0 0 0 0.25 0"/>
<feBlend mode="normal" in2="BackgroundImageFix" result="effect1_dropShadow_1249_1784"/>
<feBlend mode="normal" in="SourceGraphic" in2="effect1_dropShadow_1249_1784" result="shape"/>
</filter>
</defs>
</svg>
