<svg width="38" height="38" viewBox="0 0 38 38" fill="none" xmlns="http://www.w3.org/2000/svg">
<g filter="url(#filter0_d_646_5987)">
<circle cx="19" cy="15" r="15" fill="#082340"/>
<path d="M18.9995 25C24.5224 25 28.9995 20.5228 28.9995 15C28.9995 9.47715 24.5224 5 18.9995 5C13.4767 5 8.99951 9.47715 8.99951 15C8.99951 20.5228 13.4767 25 18.9995 25Z" fill="white"/>
<path d="M25.6115 22.5023L16.682 11H14.9995V18.9967H16.3455V12.7093L24.555 23.3161C24.9254 23.0682 25.2783 22.7962 25.6115 22.5023Z" fill="url(#paint0_linear_646_5987)"/>
<path d="M23.1112 11H21.7778V19H23.1112V11Z" fill="url(#paint1_linear_646_5987)"/>
</g>
<defs>
<filter id="filter0_d_646_5987" x="0" y="0" width="38" height="38" filterUnits="userSpaceOnUse" color-interpolation-filters="sRGB">
<feFlood flood-opacity="0" result="BackgroundImageFix"/>
<feColorMatrix in="SourceAlpha" type="matrix" values="0 0 0 0 0 0 0 0 0 0 0 0 0 0 0 0 0 0 127 0" result="hardAlpha"/>
<feOffset dy="4"/>
<feGaussianBlur stdDeviation="2"/>
<feComposite in2="hardAlpha" operator="out"/>
<feColorMatrix type="matrix" values="0 0 0 0 0 0 0 0 0 0 0 0 0 0 0 0 0 0 0.25 0"/>
<feBlend mode="normal" in2="BackgroundImageFix" result="effect1_dropShadow_646_5987"/>
<feBlend mode="normal" in="SourceGraphic" in2="effect1_dropShadow_646_5987" result="shape"/>
</filter>
<linearGradient id="paint0_linear_646_5987" x1="21.1106" y1="17.9445" x2="25.0551" y2="22.8333" gradientUnits="userSpaceOnUse">
<stop/>
<stop offset="1" stop-opacity="0"/>
</linearGradient>
<linearGradient id="paint1_linear_646_5987" x1="22.4445" y1="11" x2="22.4222" y2="16.875" gradientUnits="userSpaceOnUse">
<stop/>
<stop offset="1" stop-opacity="0"/>
</linearGradient>
</defs>
</svg>
