<svg width="38" height="38" viewBox="0 0 38 38" fill="none" xmlns="http://www.w3.org/2000/svg">
<g filter="url(#filter0_d_631_1426)">
<circle cx="19.001" cy="15" r="15" fill="#082340"/>
<path d="M22.8584 17.8602C23.5964 17.7838 24.1564 17.1476 24.1309 16.384C24.1055 15.6205 23.4692 15.0096 22.7057 15.0096H22.6548C21.8657 15.0351 21.255 15.6968 21.2804 16.4858C21.3059 16.8676 21.4585 17.1984 21.6876 17.4275C20.8223 19.1328 19.4989 20.3799 17.5137 21.4234C16.1648 22.1361 14.765 22.3906 13.3653 22.2125C12.2199 22.0598 11.3292 21.5508 10.7692 20.7108C9.95479 19.4637 9.87846 18.1147 10.5656 16.7658C11.0492 15.7986 11.8127 15.0859 12.2963 14.7296C12.1945 14.3988 12.0417 13.8388 11.9654 13.4316C8.27502 16.1041 8.65682 19.7182 9.77666 21.4234C10.6165 22.6961 12.3217 23.4851 14.2051 23.4851C14.7141 23.4851 15.2231 23.4341 15.7321 23.307C18.9899 22.6706 21.4586 20.7363 22.8584 17.8602ZM27.3378 14.7042C25.4035 12.439 22.553 11.1919 19.2953 11.1919H18.8881C18.659 10.7338 18.1754 10.4283 17.641 10.4283H17.59C16.8011 10.4538 16.1903 11.1155 16.2157 11.9045C16.2412 12.6681 16.8774 13.2789 17.641 13.2789H17.6918C18.2517 13.2534 18.7353 12.8971 18.9389 12.4135H19.3971C21.3314 12.4135 23.1638 12.9734 24.8182 14.0679C26.0907 14.9078 27.0069 16.0023 27.5159 17.3257C27.9486 18.3947 27.9231 19.4382 27.465 20.3291C26.7524 21.678 25.5562 22.4161 23.9782 22.4161C22.9602 22.4161 21.9931 22.1106 21.484 21.8816C21.2041 22.1361 20.695 22.5433 20.3387 22.7979C21.4332 23.3069 22.553 23.5869 23.6219 23.5869C26.0652 23.5869 27.8722 22.2379 28.5594 20.889C29.2975 19.4127 29.2465 16.8676 27.3378 14.7042ZM14.4087 18.2928C14.4342 19.0564 15.0704 19.6672 15.8339 19.6672H15.8849C16.6739 19.6418 17.2846 18.98 17.2592 18.191C17.2338 17.4274 16.5974 16.8166 15.8339 16.8166H15.7831C15.7321 16.8166 15.6557 16.8166 15.6049 16.842C14.5614 15.1113 14.1288 13.228 14.2815 11.1918C14.3832 9.6647 14.8923 8.34118 15.7831 7.24673C16.5211 6.30501 17.9464 5.84688 18.9135 5.82149C21.6113 5.77056 22.7565 9.13017 22.8329 10.4791C23.1638 10.5555 23.7237 10.7337 24.1055 10.8609C23.8 6.73782 21.255 4.59985 18.8117 4.59985C16.5211 4.59985 14.4087 6.25423 13.5688 8.69759C12.3981 11.9554 13.1616 15.0859 14.5868 17.5548C14.4596 17.7329 14.3832 18.0129 14.4087 18.2929V18.2928Z" fill="#764ABC"/>
</g>
<defs>
<filter id="filter0_d_631_1426" x="0" y="0" width="38.001" height="38" filterUnits="userSpaceOnUse" color-interpolation-filters="sRGB">
<feFlood flood-opacity="0" result="BackgroundImageFix"/>
<feColorMatrix in="SourceAlpha" type="matrix" values="0 0 0 0 0 0 0 0 0 0 0 0 0 0 0 0 0 0 127 0" result="hardAlpha"/>
<feOffset dy="4"/>
<feGaussianBlur stdDeviation="2"/>
<feComposite in2="hardAlpha" operator="out"/>
<feColorMatrix type="matrix" values="0 0 0 0 0 0 0 0 0 0 0 0 0 0 0 0 0 0 0.25 0"/>
<feBlend mode="normal" in2="BackgroundImageFix" result="effect1_dropShadow_631_1426"/>
<feBlend mode="normal" in="SourceGraphic" in2="effect1_dropShadow_631_1426" result="shape"/>
</filter>
</defs>
</svg>
