<svg width="38" height="38" viewBox="0 0 38 38" fill="none" xmlns="http://www.w3.org/2000/svg">
<g filter="url(#filter0_d_631_1418)">
<circle cx="18.9995" cy="15" r="15" fill="#082340"/>
<path d="M29.3546 8.73798L19.5779 26.5234C19.376 26.8907 18.8574 26.8928 18.6525 26.5274L8.68195 8.73963C8.4587 8.34147 8.79341 7.85912 9.23698 7.93984L19.0242 9.71948C19.0867 9.73083 19.1506 9.73072 19.213 9.71915L28.7955 7.94232C29.2376 7.86036 29.5739 8.33899 29.3546 8.73798Z" fill="url(#paint0_linear_631_1418)"/>
<path d="M23.6862 5.60532L16.4511 7.04759C16.3933 7.05911 16.3409 7.08985 16.3022 7.13498C16.2634 7.1801 16.2405 7.23705 16.237 7.29687L15.792 14.9438C15.7895 14.9857 15.7967 15.0277 15.813 15.0663C15.8293 15.1049 15.8542 15.1391 15.8857 15.1662C15.9172 15.1934 15.9546 15.2126 15.9947 15.2225C16.0348 15.2324 16.0767 15.2326 16.1169 15.2232L18.1313 14.7502C18.3197 14.706 18.4901 14.8749 18.4513 15.0677L17.8528 18.0491C17.8126 18.2497 17.9977 18.4213 18.1903 18.3617L19.4345 17.9772C19.6274 17.9177 19.8127 18.0897 19.7719 18.2905L18.8209 22.9736C18.7614 23.2665 19.1444 23.4262 19.304 23.1751L19.4108 23.0074L25.3063 11.0378C25.4051 10.8374 25.2347 10.6089 25.0185 10.6514L22.9449 11.0585C22.7502 11.0967 22.5844 10.9121 22.6393 10.7182L23.9927 5.9455C24.0477 5.75113 23.8813 5.56644 23.6862 5.60532H23.6862Z" fill="url(#paint1_linear_631_1418)"/>
</g>
<defs>
<filter id="filter0_d_631_1418" x="-0.000488281" y="0" width="38.0005" height="38" filterUnits="userSpaceOnUse" color-interpolation-filters="sRGB">
<feFlood flood-opacity="0" result="BackgroundImageFix"/>
<feColorMatrix in="SourceAlpha" type="matrix" values="0 0 0 0 0 0 0 0 0 0 0 0 0 0 0 0 0 0 127 0" result="hardAlpha"/>
<feOffset dy="4"/>
<feGaussianBlur stdDeviation="2"/>
<feComposite in2="hardAlpha" operator="out"/>
<feColorMatrix type="matrix" values="0 0 0 0 0 0 0 0 0 0 0 0 0 0 0 0 0 0 0.25 0"/>
<feBlend mode="normal" in2="BackgroundImageFix" result="effect1_dropShadow_631_1418"/>
<feBlend mode="normal" in="SourceGraphic" in2="effect1_dropShadow_631_1418" result="shape"/>
</filter>
<linearGradient id="paint0_linear_631_1418" x1="8.43851" y1="9.37478" x2="19.2188" y2="23.7659" gradientUnits="userSpaceOnUse">
<stop stop-color="#41D1FF"/>
<stop offset="1" stop-color="#BD34FE"/>
</linearGradient>
<linearGradient id="paint1_linear_631_1418" x1="19.9311" y1="5.99692" x2="22.1745" y2="21.1236" gradientUnits="userSpaceOnUse">
<stop stop-color="#FFEA83"/>
<stop offset="0.083" stop-color="#FFDD35"/>
<stop offset="1" stop-color="#FFA800"/>
</linearGradient>
</defs>
</svg>
