<svg width="201" height="150" viewBox="0 0 201 150" fill="none" xmlns="http://www.w3.org/2000/svg">
<path d="M196.711 49.5312C198.234 48.3203 200.5 49.4531 200.5 51.3672V131.25C200.5 141.602 192.102 150 181.75 150H19.25C8.89844 150 0.5 141.602 0.5 131.25V51.4063C0.5 49.4531 2.72656 48.3594 4.28906 49.5703C13.0391 56.3672 24.6406 65 64.4844 93.9453C72.7266 99.9609 86.6328 112.617 100.5 112.539C114.445 112.656 128.625 99.7266 136.555 93.9453C176.398 65 187.961 56.3281 196.711 49.5312ZM100.5 100C109.562 100.156 122.609 88.5938 129.172 83.8281C181.008 46.2109 184.953 42.9297 196.906 33.5547C199.172 31.7969 200.5 29.0625 200.5 26.1719V18.75C200.5 8.39844 192.102 0 181.75 0H19.25C8.89844 0 0.5 8.39844 0.5 18.75V26.1719C0.5 29.0625 1.82812 31.7578 4.09375 33.5547C16.0469 42.8906 19.9922 46.2109 71.8281 83.8281C78.3906 88.5938 91.4375 100.156 100.5 100Z" fill="#B0D7FF"/>
</svg>
