<svg width="286" height="284" viewBox="0 0 286 284" fill="none" xmlns="http://www.w3.org/2000/svg">
<path d="M125.761 6.68758C18.0765 16.8992 -39.8888 145.204 31.4429 232.812C64.4072 273.452 119.454 293.555 173.711 279.575C202.778 272.076 227.911 255.44 245.814 233.792C323.999 139.759 250.351 -5.20084 125.761 6.68758Z" fill="url(#paint0_radial_538_6601)"/>
<path d="M64.3087 186.108L64.3084 186.107C32.5352 128.266 76.3889 58.0819 140.28 60.1364L140.294 60.1369L140.309 60.1372C180.976 60.9659 215.348 91.0765 221.904 131.125L221.905 131.132C230.511 182.83 190.735 230.092 138.432 230.092C106.521 230.092 78.7105 212.341 64.3087 186.108Z" fill="url(#paint1_radial_538_6601)" stroke="#231F20" stroke-width="5"/>
<g opacity="0.75">
<path d="M173.027 159.246C169.415 158.343 168.419 162.857 170.461 163.874C172.504 164.908 177.635 167.994 178.665 165.926C179.694 163.874 177.129 160.28 173.027 159.246Z" fill="#056DB1"/>
<path d="M208.896 121.17C205.399 121.974 201.216 123.746 204.795 126.323C208.39 128.9 214.011 127.866 214.534 124.78C215.041 121.678 215.564 119.627 208.896 121.17Z" fill="#056DB1"/>
<path d="M138.694 204.019C131.177 199.489 120.244 197.848 119.215 202.476C118.185 207.104 125.359 214.309 134.069 213.275C142.796 212.258 143.825 207.104 138.694 204.019Z" fill="#056DB1"/>
<path d="M91.0411 203.51C94.3584 204.971 96.6789 197.848 92.0706 191.677C87.4623 185.506 85.4033 177.776 79.7655 176.233C74.1277 174.69 71.0555 194.762 91.0411 203.51Z" fill="#056DB1"/>
<path d="M68.4905 178.284C66.6766 178.612 65.9249 182.404 70.0266 182.912C74.1283 183.438 74.1283 177.267 68.4905 178.284Z" fill="#056DB1"/>
<path d="M114.1 157.195C110.488 156.866 106.926 158.737 107.433 162.857C107.939 166.976 113.577 162.857 116.143 162.857C118.708 162.857 119.738 157.703 114.1 157.195Z" fill="#056DB1"/>
<path d="M149.462 109.336C146.358 107.859 145.867 114.49 148.433 115.507C150.999 116.541 158.172 113.439 149.462 109.336Z" fill="#056DB1"/>
</g>
<path d="M116.182 140.331L116.229 140.323C120.377 139.588 123.612 138.391 125.818 136.952C128.023 135.514 128.982 133.996 129.171 132.606C129.36 131.218 128.872 129.293 126.737 126.843C124.599 124.389 120.988 121.635 115.503 118.755C104.132 112.788 98.5685 108.634 94.8775 104.508C93.0391 102.453 91.7176 100.462 90.415 98.4213C90.2376 98.1435 90.0607 97.865 89.8828 97.5848C88.7466 95.7958 87.5678 93.9398 85.9664 91.7942L116.182 140.331ZM116.182 140.331C107.59 141.853 102.26 142.797 97.1186 145.138C91.9623 147.485 87.1109 151.177 79.1856 157.859M116.182 140.331L79.1856 157.859M79.1856 157.859C70.3523 165.296 61.2116 163.581 55.3191 161.061C54.3487 155.897 53.832 150.559 53.832 145.099C53.832 121.627 63.3044 100.37 78.6194 84.9977C81.2924 86.7778 83.8901 89.0139 85.9661 91.7937L79.1856 157.859Z" fill="url(#paint2_linear_538_6601)" stroke="#231F20" stroke-width="5"/>
<path d="M212.891 104.697C205.875 104.788 199.902 108.262 194.881 111.526C194.078 112.048 193.305 112.561 192.555 113.058C190.331 114.534 188.311 115.874 186.307 116.921C183.662 118.303 181.469 118.93 179.472 118.688L179.47 118.687C177.018 118.392 175.455 117.327 174.2 115.549C172.841 113.621 171.843 110.846 170.823 107.13C170.447 105.763 170.076 104.291 169.682 102.731C167.992 96.0379 165.896 87.7375 161.388 79.3345L161.388 79.3339C157.202 71.5377 156.273 65.8968 156.496 62.058C180.881 67.3684 201.34 83.2532 212.891 104.697Z" fill="url(#paint3_linear_538_6601)" stroke="#231F20" stroke-width="5"/>
<path d="M197.926 137.935L197.925 137.937C196.87 140.998 196.684 143.206 196.866 145.015C197.053 146.865 197.636 148.462 198.406 150.425C198.452 150.542 198.498 150.66 198.545 150.78C199.271 152.626 200.118 154.781 200.617 157.429C201.155 160.281 201.279 163.629 200.595 167.881L197.926 137.935ZM197.926 137.935C198.423 136.49 199.311 135.826 200.73 135.569C202.359 135.275 204.646 135.563 207.451 136.43C212.575 138.013 218.447 141.207 223.038 144.02C223.045 144.378 223.048 144.738 223.048 145.099C223.048 177.191 205.352 205.117 179.223 219.587M197.926 137.935L179.223 219.587M179.223 219.587C178.738 218.304 178.623 217.148 178.748 216.086C178.942 214.435 179.75 212.718 181.239 210.873C184.288 207.094 189.624 203.436 195.891 199.448C199.881 196.91 202.382 194.479 203.536 191.771C204.741 188.945 204.273 186.31 203.531 183.971C203.215 182.974 202.851 182.003 202.483 181.023C201.107 177.356 199.687 173.571 200.595 167.882L179.223 219.587Z" fill="url(#paint4_linear_538_6601)" stroke="#231F20" stroke-width="5"/>
<path d="M144.569 173.991L144.572 173.99C152.286 171.575 158.084 170.416 162.366 170.175C166.688 169.931 169.146 170.641 170.5 171.591C171.731 172.455 172.405 173.77 172.527 175.807C172.654 177.928 172.154 180.608 171.167 183.715C169.334 189.463 165.377 193.474 160.708 195.184C156.067 196.884 150.513 196.388 145.257 192.713C139.14 188.436 134.766 186.668 129.728 186.163C127.291 185.919 124.765 185.977 121.943 186.114C121.029 186.159 120.087 186.212 119.1 186.267C116.987 186.385 114.668 186.515 111.977 186.601C108.519 186.712 107.24 185.655 106.739 184.798C106.134 183.762 106.01 181.953 106.863 179.499C107.688 177.123 109.297 174.576 111.381 172.483C113.473 170.383 115.883 168.898 118.229 168.385C123.157 167.307 126.638 169.015 130.498 171.097C130.672 171.191 130.848 171.286 131.026 171.382C134.639 173.343 139.022 175.721 144.569 173.991Z" fill="url(#paint5_linear_538_6601)" stroke="#231F20" stroke-width="5"/>
<path d="M179.792 146.922L179.791 146.926C179.333 149.234 178.647 150.136 178.252 150.451C177.974 150.673 177.61 150.796 176.889 150.597C176.094 150.378 175.105 149.806 174.074 148.918C173.064 148.049 172.158 147 171.515 146.03C169.512 143.013 166.532 141.752 164.4 140.907C164.207 140.831 164.023 140.759 163.848 140.69C162.977 140.348 162.328 140.093 161.773 139.79C161.148 139.449 160.978 139.215 160.917 139.093C160.399 138.053 160.552 137.593 160.712 137.325C160.981 136.878 161.819 136.101 164.051 135.383C168.985 133.804 173.366 134.758 176.239 136.974C179.084 139.169 180.632 142.722 179.792 146.922Z" fill="url(#paint6_linear_538_6601)" stroke="#231F20" stroke-width="5"/>
<path opacity="0.5" d="M145.361 106.235C144.446 113.095 138.187 106.235 127.941 104.183C117.695 102.132 113.594 95.9442 118.202 91.8247C122.81 87.7052 128.955 84.6197 135.115 88.214C141.26 91.8247 146.375 98.5209 145.361 106.235Z" fill="#056DB1"/>
<path d="M134.592 63.0813C127.648 63.0813 122.51 65.0556 117.715 67.4648C116.324 68.1634 114.994 68.8783 113.671 69.5896C110.361 71.3682 107.095 73.124 103.031 74.5452C98.7962 76.0184 95.1988 75.2355 92.3983 73.7851C105.595 65.1675 121.328 60.1465 138.239 60.1052C138.275 60.874 138.176 61.4699 137.971 61.8791C137.777 62.2661 137.2 63.0813 134.592 63.0813Z" fill="url(#paint7_linear_538_6601)" stroke="#231F20" stroke-width="5"/>
<path d="M109.797 44.9448L111.711 44.2952L111.773 44.4781L109.859 45.1277L109.797 44.9448Z" fill="#EAEEEF"/>
<path d="M110.163 42.9943C110.069 43.0261 110.018 43.127 110.049 43.2185C110.081 43.312 110.183 43.3607 110.277 43.329C110.372 43.2965 110.424 43.1956 110.392 43.1021C110.361 43.0106 110.259 42.9619 110.163 42.9943Z" fill="#EAEEEF"/>
<path d="M115.382 39.3628L115.309 39.7353L115.637 39.7932L115.713 39.4221L115.382 39.3628Z" fill="#EAEEEF"/>
<path d="M106.62 36.0816L105.906 39.6526L112.427 40.4807L113.008 37.5761L106.62 36.0816Z" fill="#EAEEEF"/>
<path d="M117.032 39.1729L116.77 40.4855L117.147 40.5521L117.41 39.2416L117.032 39.1729Z" fill="#505967"/>
<path d="M99.7056 36.7357C99.4407 38.0657 100.323 39.3472 101.673 39.589L102.051 39.6578L102.041 39.703C102.012 39.8565 102.047 40.0139 102.138 40.1383C102.221 40.2558 102.351 40.3371 102.496 40.3619C102.506 40.3633 102.516 40.3646 102.525 40.3659L108.901 41.1762L109.271 42.2653C108.936 42.6108 108.796 43.1127 108.957 43.5886C109.005 43.7299 109.08 43.8552 109.168 43.9644L108.888 44.0596C108.586 44.1619 108.423 44.4863 108.523 44.7814L108.873 45.8124L106.383 50.723C106.24 51.0035 106.355 51.3423 106.64 51.4795C106.781 51.5475 106.94 51.5515 107.079 51.5042C107.219 51.457 107.342 51.357 107.413 51.2171L109.903 46.3065L110.599 46.0702L111.716 49.3627C111.817 49.6578 112.143 49.8136 112.444 49.7113C112.748 49.6084 112.91 49.2868 112.81 48.9916L111.692 45.6992L112.457 45.4396L117.309 47.7636C117.451 47.8336 117.608 47.8383 117.75 47.7904C117.889 47.7431 118.011 47.6439 118.083 47.5012C118.224 47.2213 118.109 46.8825 117.827 46.7467L112.974 44.4206L112.624 43.3896C112.524 43.0945 112.199 42.9359 111.895 43.0389L111.548 43.1567C111.552 43.0165 111.535 42.8715 111.487 42.7302C111.316 42.2272 110.86 41.8999 110.352 41.8589L110.175 41.3372L114.329 41.8651C114.632 41.9037 114.919 41.7023 114.975 41.4049L115.088 40.8476L115.527 40.9278C115.54 41.1714 115.728 41.3834 115.995 41.432L117.504 41.7035C117.815 41.7601 118.116 41.5697 118.174 41.2813L118.645 38.9194C118.704 38.6303 118.497 38.3482 118.184 38.2923L116.678 38.0222C116.41 37.9743 116.151 38.1063 116.046 38.3296L115.606 38.2493L115.736 37.6005C115.795 37.3045 115.61 37.0174 115.312 36.9468L103.748 34.2421C103.595 34.2082 103.433 34.2354 103.299 34.3202C103.166 34.4049 103.072 34.5387 103.043 34.6922L103.014 34.8319L102.638 34.7624C101.286 34.5212 99.9726 35.4051 99.7056 36.7357ZM101.895 38.4751C101.169 38.3437 100.694 37.6543 100.836 36.9385C100.98 36.2221 101.688 35.7455 102.416 35.8763L102.792 35.9457L102.273 38.5439L101.895 38.4751ZM103.29 39.3207L104.055 35.4822L105.501 35.8214L104.766 39.5085L103.29 39.3207ZM105.906 39.6522L106.62 36.0812L113.008 37.5757L112.427 40.4803L105.906 39.6522ZM109.86 45.1276L109.798 44.9447L111.712 44.295L111.774 44.4779L109.86 45.1276ZM110.051 43.2177C110.02 43.1262 110.071 43.0253 110.165 42.9935C110.26 42.9611 110.363 43.0098 110.394 43.1013C110.425 43.1948 110.374 43.2957 110.278 43.3282C110.185 43.3599 110.082 43.3112 110.051 43.2177ZM113.57 40.6255L114.127 37.8383L114.499 37.9251L113.951 40.6747L113.57 40.6255ZM115.311 39.7358L115.384 39.3634L115.714 39.4227L115.639 39.7938L115.311 39.7358ZM116.77 40.4853L117.032 39.1726L117.41 39.2414L117.148 40.5519L116.77 40.4853Z" fill="black"/>
<path d="M100.838 36.9386C100.696 37.6542 101.171 38.3438 101.897 38.4752L102.275 38.5439L102.793 35.9458L102.418 35.8763C101.689 35.7456 100.982 36.2222 100.838 36.9386Z" fill="#FEDE94"/>
<path d="M104.053 35.4816L103.289 39.32L104.764 39.5078L105.499 35.8208L104.053 35.4816Z" fill="#505967"/>
<path d="M114.128 37.8378L113.572 40.625L113.952 40.6743L114.5 37.9247L114.128 37.8378Z" fill="#505967"/>
<path d="M104.769 39.5077L103.294 39.32L103.545 38.0587L104.999 38.3526L104.769 39.5077Z" fill="#454D5B"/>
<path d="M112.43 40.4798L105.909 39.6517L106.123 38.5801L112.55 39.8782L112.43 40.4798Z" fill="#C5CBCF"/>
<path d="M113.95 40.6749L113.57 40.6255L113.673 40.1064L114.049 40.1823L113.95 40.6749Z" fill="#454D5B"/>
<path d="M104.056 35.4818L105.502 35.821L105.283 36.9209L103.825 36.644L104.056 35.4818Z" fill="#454D5B"/>
<path d="M106.621 36.0792L113.009 37.5736L112.852 38.357L106.41 37.1335L106.621 36.0792Z" fill="#C5CBCF"/>
<path d="M114.128 37.8375L114.5 37.9244L114.357 38.6441L113.981 38.5727L114.128 37.8375Z" fill="#454D5B"/>
<path d="M101.896 38.4747C101.17 38.3432 100.695 37.6538 100.837 36.938C100.869 36.7789 100.93 36.6325 101.012 36.5011C100.961 37.1851 101.358 38.0809 102.23 38.5355L101.896 38.4747Z" fill="#F2CE75"/>
<path d="M109.146 54.7822L107.345 55.3932L106.083 51.674L118.535 47.4484L119.797 51.1675L117.997 51.7785L122.574 59.1248L121.607 59.61L118.835 55.1627L115.203 56.3953L116.819 61.156L115.787 61.506L114.172 56.7454L110.54 57.978L111.048 63.1934L109.985 63.3972L109.146 54.7822ZM114.934 55.6019L118.38 54.4323L116.948 52.1342L114.087 53.1053L114.934 55.6019ZM113.903 55.9519L113.055 53.4554L110.194 54.4264L110.456 57.1214L113.903 55.9519Z" fill="black"/>
<path d="M118.383 40.7755L118.382 40.7751C118.303 40.6923 118.265 40.5507 118.307 40.3598C118.347 40.1774 118.456 39.9716 118.634 39.7908L118.636 39.7898L118.656 39.7693C118.801 39.6232 118.98 39.5154 119.177 39.4549L119.226 39.4401L119.26 39.4024L120.778 37.7027L121.382 38.2933L119.748 39.9403L119.718 39.9704L119.705 40.0108C119.639 40.2105 119.527 40.3881 119.378 40.5297L119.378 40.5297L119.376 40.5317C119.187 40.7175 118.972 40.8281 118.786 40.8638C118.598 40.8998 118.462 40.8579 118.383 40.7755Z" fill="#F3A3A6" stroke="black" stroke-width="0.362264"/>
<path d="M122.608 34.6414L122.624 34.62L122.633 34.5949L124.34 29.9988C124.507 29.5483 124.859 29.2107 125.306 29.0695C125.753 28.9283 126.228 29.0033 126.612 29.2774L126.612 29.2775C127.241 29.725 127.445 30.5872 127.083 31.2822C127.083 31.2822 127.083 31.2822 127.083 31.2822L124.463 36.3075L120.122 39.6835L119.441 38.8111L122.608 34.6414Z" fill="#3D48E9" stroke="black" stroke-width="0.362264"/>
<path d="M126.472 27.3072L126.64 29.309L124.982 29.8701L124.977 27.31L126.472 27.3072Z" fill="#F3A3A6" stroke="black" stroke-width="0.362264"/>
<path d="M126.888 25.8811C126.89 26.9295 126.062 27.7737 125.048 27.7756C124.033 27.7774 123.202 26.9363 123.201 25.8878C123.199 24.8394 124.026 23.9952 125.041 23.9934C126.055 23.9915 126.886 24.8327 126.888 25.8811Z" fill="#F3A3A6" stroke="black" stroke-width="0.362264"/>
<path d="M125.591 25.091L125.566 25.0468L125.29 24.5542L124.959 24.5725C124.922 24.4659 124.872 24.3655 124.81 24.2727L124.951 24.1727C124.952 24.1725 124.952 24.1722 124.953 24.172C124.956 24.1697 124.963 24.165 124.973 24.1583C124.995 24.1448 125.028 24.124 125.071 24.1C125.161 24.0499 125.274 23.9955 125.387 23.9588C125.473 23.9312 125.532 23.9221 125.568 23.9201L125.656 24.0259L125.816 24.108C125.817 24.1084 125.818 24.1089 125.819 24.1095C125.824 24.1126 125.836 24.1189 125.852 24.1284C125.884 24.1474 125.934 24.1784 125.995 24.2207C126.119 24.3073 126.274 24.4309 126.41 24.5838C126.617 24.8156 126.744 25.0601 126.733 25.3473C126.702 25.323 126.669 25.2997 126.635 25.2774C126.299 25.0589 125.933 25.0233 125.591 25.091Z" fill="#2F2E43" stroke="black" stroke-width="1.81132"/>
<path d="M125.99 59.9916L125.987 57.9787L127.26 57.9763L127.264 59.9893L125.99 59.9916Z" fill="#F3A3A6" stroke="black" stroke-width="0.362264"/>
<mask id="path-40-inside-1_538_6601" fill="white">
<path d="M124.219 61.613C124.047 61.6133 123.894 61.6096 123.779 61.5986C123.344 61.5586 122.929 61.2308 122.72 61.0393C122.626 60.9531 122.596 60.8157 122.644 60.6972C122.679 60.6124 122.749 60.5484 122.835 60.5234L123.983 60.1855L125.84 58.8982L125.861 58.9365C125.869 58.9509 126.052 59.2871 126.114 59.5141C126.137 59.6004 126.131 59.6723 126.096 59.7284C126.072 59.7668 126.038 59.7892 126.01 59.8021C126.044 59.838 126.15 59.9114 126.475 59.9635C126.949 60.0394 127.048 59.5364 127.052 59.5156L127.055 59.4988L127.069 59.4892C127.295 59.34 127.434 59.2718 127.481 59.2861C127.511 59.2949 127.561 59.3108 127.699 60.68C127.712 60.7232 127.807 61.038 127.743 61.3395C127.675 61.6674 126.275 61.5573 125.994 61.5322C125.986 61.533 124.938 61.6117 124.22 61.613L124.219 61.613Z"/>
</mask>
<path d="M124.219 61.613C124.047 61.6133 123.894 61.6096 123.779 61.5986C123.344 61.5586 122.929 61.2308 122.72 61.0393C122.626 60.9531 122.596 60.8157 122.644 60.6972C122.679 60.6124 122.749 60.5484 122.835 60.5234L123.983 60.1855L125.84 58.8982L125.861 58.9365C125.869 58.9509 126.052 59.2871 126.114 59.5141C126.137 59.6004 126.131 59.6723 126.096 59.7284C126.072 59.7668 126.038 59.7892 126.01 59.8021C126.044 59.838 126.15 59.9114 126.475 59.9635C126.949 60.0394 127.048 59.5364 127.052 59.5156L127.055 59.4988L127.069 59.4892C127.295 59.34 127.434 59.2718 127.481 59.2861C127.511 59.2949 127.561 59.3108 127.699 60.68C127.712 60.7232 127.807 61.038 127.743 61.3395C127.675 61.6674 126.275 61.5573 125.994 61.5322C125.986 61.533 124.938 61.6117 124.22 61.613L124.219 61.613Z" fill="#2F2E43"/>
<path d="M124.219 61.613L124.222 59.8017L124.216 59.8017L124.219 61.613ZM123.779 61.5986L123.95 59.7954L123.945 59.7949L123.779 61.5986ZM122.72 61.0393L121.495 62.3738L121.496 62.3746L122.72 61.0393ZM122.644 60.6972L120.97 60.0063L120.967 60.0141L122.644 60.6972ZM122.835 60.5234L123.336 62.2641L123.347 62.261L122.835 60.5234ZM123.983 60.1855L124.495 61.9231L124.775 61.8406L125.015 61.6741L123.983 60.1855ZM125.84 58.8982L127.426 58.0229L126.456 56.2667L124.808 57.4096L125.84 58.8982ZM125.861 58.9365L127.451 58.0694L127.447 58.0612L125.861 58.9365ZM126.114 59.5141L124.365 59.9867L124.367 59.9917L126.114 59.5141ZM126.096 59.7284L127.63 60.6922L127.632 60.6891L126.096 59.7284ZM126.01 59.8021L125.24 58.1628L122.985 59.2227L124.689 61.0406L126.01 59.8021ZM126.475 59.9635L126.188 61.752L126.189 61.7521L126.475 59.9635ZM127.052 59.5156L128.833 59.8467L128.833 59.8438L127.052 59.5156ZM127.055 59.4988L126.031 58.0044L125.41 58.43L125.274 59.1705L127.055 59.4988ZM127.069 59.4892L126.07 57.9783L126.058 57.9864L126.046 57.9948L127.069 59.4892ZM127.481 59.2861L126.961 61.0211L126.97 61.0238L127.481 59.2861ZM127.699 60.68L125.896 60.8612L125.914 61.0421L125.968 61.2158L127.699 60.68ZM127.743 61.3395L125.971 60.9662L125.971 60.9669L127.743 61.3395ZM125.994 61.5322L126.155 59.7281L125.981 59.7125L125.806 59.7306L125.994 61.5322ZM124.22 61.613L124.218 63.4243L124.223 63.4243L124.22 61.613ZM124.216 59.8017C124.058 59.802 123.976 59.7978 123.95 59.7954L123.607 63.4018C123.813 63.4213 124.037 63.4246 124.223 63.4243L124.216 59.8017ZM123.945 59.7949C124.032 59.803 124.087 59.8222 124.104 59.8286C124.122 59.8352 124.119 59.8363 124.099 59.8238C124.079 59.8119 124.053 59.7942 124.023 59.7709C123.993 59.7479 123.966 59.7244 123.944 59.704L121.496 62.3746C121.654 62.5196 121.909 62.7338 122.231 62.9277C122.538 63.1128 123.019 63.3477 123.613 63.4023L123.945 59.7949ZM123.945 59.7048C124.417 60.1386 124.555 60.8089 124.322 61.3803L120.967 60.0141C120.638 60.8224 120.835 61.7676 121.495 62.3738L123.945 59.7048ZM124.319 61.3882C124.154 61.7879 123.807 62.1287 123.336 62.2641L122.334 58.7828C121.691 58.968 121.205 59.4369 120.97 60.0063L124.319 61.3882ZM123.347 62.261L124.495 61.9231L123.472 58.4479L122.324 58.7858L123.347 62.261ZM125.015 61.6741L126.872 60.3867L124.808 57.4096L122.951 58.697L125.015 61.6741ZM124.254 59.7735L124.275 59.8118L127.447 58.0612L127.426 58.0229L124.254 59.7735ZM124.271 59.8037C124.271 59.8037 124.271 59.8038 124.271 59.8045C124.272 59.8053 124.273 59.8071 124.274 59.8098C124.277 59.8152 124.282 59.824 124.288 59.8355C124.3 59.8591 124.316 59.8909 124.333 59.9256C124.35 59.9614 124.363 59.9918 124.372 60.0137C124.376 60.0241 124.378 60.0282 124.377 60.0266C124.377 60.0258 124.372 60.0118 124.365 59.9867L127.862 59.0414C127.786 58.76 127.664 58.4951 127.602 58.3656C127.528 58.2092 127.462 58.0894 127.451 58.0694L124.271 59.8037ZM124.367 59.9917C124.304 59.7632 124.245 59.2721 124.561 58.7677L127.632 60.6891C128.017 60.0726 127.971 59.4376 127.861 59.0364L124.367 59.9917ZM124.563 58.7645C124.784 58.4129 125.076 58.24 125.24 58.1628L126.781 61.4413C127 61.3385 127.36 61.1207 127.63 60.6922L124.563 58.7645ZM124.689 61.0406C125.143 61.5251 125.747 61.6813 126.188 61.752L126.762 58.1751C126.692 58.1639 126.728 58.1629 126.823 58.202C126.917 58.2406 127.124 58.3416 127.332 58.5636L124.689 61.0406ZM126.189 61.7521C126.645 61.8251 127.119 61.7693 127.554 61.5588C127.97 61.3575 128.245 61.0659 128.416 60.8256C128.729 60.3848 128.815 59.9441 128.833 59.8467L125.271 59.1845C125.285 59.1078 125.319 58.9291 125.464 58.7261C125.55 58.6046 125.711 58.4259 125.975 58.2981C126.258 58.1613 126.542 58.1399 126.761 58.175L126.189 61.7521ZM128.833 59.8438L128.836 59.827L125.274 59.1705L125.271 59.1873L128.833 59.8438ZM128.079 60.9931L128.093 60.9835L126.046 57.9948L126.031 58.0044L128.079 60.9931ZM128.068 61C128.156 60.9416 128.174 60.9356 128.142 60.9515C128.129 60.9577 128.051 60.9963 127.931 61.0311C127.869 61.049 127.761 61.0762 127.62 61.0887C127.489 61.1005 127.248 61.1072 126.961 61.0211L128.002 57.5512C127.466 57.3904 127.019 57.5238 126.926 57.5506C126.759 57.5988 126.624 57.6611 126.542 57.7013C126.372 57.7849 126.207 57.8876 126.07 57.9783L128.068 61ZM126.97 61.0238C126.97 61.0238 126.97 61.0237 126.97 61.0237C126.969 61.0236 126.969 61.0235 126.969 61.0234C126.968 61.0232 126.967 61.0229 126.965 61.0224C126.962 61.0216 126.958 61.0202 126.952 61.0185C126.941 61.0152 126.924 61.0098 126.903 61.0028C126.861 60.9885 126.802 60.9666 126.733 60.9349C126.584 60.867 126.435 60.7741 126.296 60.6516C126.036 60.4222 125.911 60.1769 125.861 60.0678C125.808 59.9516 125.783 59.8619 125.777 59.838C125.768 59.8064 125.767 59.7933 125.77 59.8104C125.787 59.9006 125.827 60.1759 125.896 60.8612L129.501 60.4989C129.432 59.8149 129.379 59.3976 129.329 59.1354C129.31 59.037 129.265 58.8024 129.156 58.5624C129.095 58.4291 128.96 58.1704 128.691 57.9332C128.373 57.6533 128.043 57.5634 127.992 57.5485L126.97 61.0238ZM125.968 61.2158C125.96 61.1903 125.958 61.1796 125.957 61.1706C125.956 61.165 125.954 61.148 125.954 61.1202C125.954 61.0933 125.956 61.0395 125.971 60.9662L129.516 61.7128C129.683 60.9183 129.449 60.2098 129.429 60.1443L125.968 61.2158ZM125.971 60.9669C126.101 60.3458 126.515 60.0225 126.702 59.9059C126.888 59.7898 127.035 59.7556 127.052 59.7516C127.096 59.741 127.058 59.7534 126.901 59.7575C126.615 59.765 126.28 59.7393 126.155 59.7281L125.833 63.3363C125.988 63.3502 126.493 63.3921 126.996 63.3789C127.232 63.3727 127.575 63.3528 127.909 63.2714C128.071 63.232 128.341 63.1528 128.618 62.9801C128.896 62.8068 129.368 62.4152 129.516 61.7121L125.971 60.9669ZM125.806 59.7306C125.853 59.7258 125.633 59.7435 125.271 59.764C124.927 59.7834 124.525 59.8011 124.217 59.8017L124.223 63.4243C125.011 63.4229 126.122 63.34 126.182 63.3337L125.806 59.7306ZM124.222 59.8017L124.222 59.8017L124.217 63.4243L124.218 63.4243L124.222 59.8017Z" fill="black" mask="url(#path-40-inside-1_538_6601)"/>
<path d="M131.147 56.8669L129.892 55.3207L130.875 54.4859L132.129 56.032L131.147 56.8669Z" fill="#F3A3A6" stroke="black" stroke-width="0.362264"/>
<path d="M131.285 57.5918C131.146 57.7251 130.942 57.9195 130.726 58.1188L130.875 57.5974L130.947 57.6055C131.061 57.6185 131.173 57.6125 131.285 57.5918ZM132.534 57.1707C132.534 57.1705 132.533 57.1702 132.533 57.1699C132.533 57.1699 132.533 57.1699 132.533 57.1699L132.534 57.1707Z" fill="#2F2E43" stroke="black" stroke-width="1.81132"/>
<path d="M125.755 58.2814L123.275 39.6661L128.485 39.6566L127.296 58.2786L125.755 58.2814Z" fill="#2F2E43" stroke="black" stroke-width="0.362264"/>
<path d="M127.75 49.9119L127.759 49.9347L127.773 49.9542L131.403 54.7556L130.068 55.8886L123.834 49.8431L123.273 39.9182L124.059 40.6347L127.75 49.9119Z" fill="#2F2E43" stroke="black" stroke-width="0.362264"/>
<path d="M123.267 39.3045L124.356 28.4733L126.864 28.0517L127.665 29.4789C128.744 31.4004 129.186 33.6284 128.927 35.8297L128.517 39.2949L123.267 39.3045Z" fill="#3D48E9" stroke="black" stroke-width="0.362264"/>
<path d="M118.662 40.5351L118.715 40.4939C118.864 40.3878 119.034 40.3157 119.215 40.283L119.265 40.274L119.303 40.2402L121.003 38.7309L121.537 39.3903L119.73 40.8326L119.696 40.8594L119.678 40.8986C119.591 41.0882 119.46 41.2511 119.296 41.3748L119.296 41.3748L119.294 41.3764C119.085 41.5383 118.861 41.6227 118.672 41.6362C118.481 41.6497 118.349 41.592 118.28 41.5003C118.21 41.4079 118.189 41.2624 118.252 41.0781C118.314 40.8955 118.453 40.6971 118.662 40.5351Z" fill="#F3A3A6" stroke="black" stroke-width="0.362264"/>
<path d="M119.554 39.6707L123.168 35.9047L123.187 35.8853L123.199 35.8612L125.412 31.4976L125.412 31.4976C125.629 31.0705 126.017 30.7766 126.476 30.6888L126.476 30.6888C126.935 30.6012 127.399 30.7321 127.751 31.0496C128.326 31.5694 128.431 32.4502 127.993 33.0965L127.993 33.0965L124.825 37.7778L120.132 40.6178L119.554 39.6707Z" fill="#3D48E9" stroke="black" stroke-width="0.362264"/>
<path d="M275.342 63.6184C278.202 60.4747 277.971 55.6085 274.828 52.7493C274.113 52.0986 273.308 51.6096 272.458 51.2768C272.484 48.3107 271.296 45.3469 268.929 43.194C264.52 39.183 257.693 39.5065 253.682 43.9161C253.408 44.2182 253.155 44.5325 252.921 44.8556C250.116 43.6927 246.766 44.3391 244.605 46.7142C241.853 49.7398 242.074 54.4237 245.1 57.1758C245.809 57.8207 246.609 58.3 247.454 58.6207C247.487 61.3284 248.598 64.0156 250.759 65.9812C254.89 69.7387 261.285 69.436 265.043 65.3047C265.173 65.1617 265.297 65.0153 265.418 64.8671C268.528 66.9214 272.756 66.4619 275.342 63.6184Z" fill="#39B54A"/>
<path d="M232.711 19.9632L227.373 15.1079L211.512 32.5456L216.849 37.4008L232.711 19.9632Z" fill="#A7A9AC"/>
<path d="M179.942 63.1682L204.098 36.612L243.317 34.4871L244.906 73.7311L220.75 100.287L179.942 63.1682Z" fill="#EFEFEF"/>
<path d="M241.933 79.6471L239.116 39.1047L198.489 40.1304L198.262 31.1138L246.237 29.9022C246.952 29.8842 247.556 30.4329 247.605 31.1472L250.931 79.0215L241.933 79.6471Z" fill="#F15A29"/>
<path d="M223.365 102.666L177.328 60.7893L171.865 66.7945L217.903 108.671L223.365 102.666Z" fill="#A7A9AC"/>
<path d="M215.691 61.4642L204.659 51.4297L187.625 70.1565L198.657 80.191L215.691 61.4642Z" fill="#8B4402"/>
<path d="M232.752 51.6157C232.553 48.7502 230.133 46.5493 227.262 46.6218C222.424 46.7439 220.205 52.7022 223.785 55.9586C227.365 59.2149 233.087 56.4433 232.752 51.6157Z" fill="#FFDE17"/>
<path d="M234.147 74.8373L223.84 65.4619L211.054 79.5181L221.361 88.8934L234.147 74.8373Z" fill="#77F4FF"/>
<path d="M266.136 63.779L266.136 63.7789C265.576 63.4094 264.828 63.5243 264.405 64.0448C264.29 64.1863 264.183 64.312 264.078 64.4273C260.81 68.0204 255.229 68.2847 251.636 65.0165C251.557 64.9444 251.48 64.8686 251.413 64.8019C251.399 64.7879 251.385 64.7743 251.372 64.7612L251.238 64.6284L251.225 64.44L250.898 59.7394L250.863 59.2295L251.373 59.2053L261.086 58.7453C261.087 58.7452 261.088 58.7451 261.09 58.7449L261.109 58.7427C261.117 58.7418 261.128 58.7407 261.141 58.7397L261.158 58.7383L261.176 58.7381C261.181 58.7381 261.185 58.7381 261.19 58.7381C261.196 58.7381 261.201 58.7382 261.205 58.7383L261.216 58.7385L261.223 58.7386C261.225 58.7386 261.226 58.7387 261.227 58.7387C261.944 58.7026 262.498 58.0927 262.464 57.3745C262.464 57.3745 262.464 57.3744 262.464 57.3744L262.079 49.2416C262.045 48.5225 261.434 47.9668 260.715 48.0007C260.715 48.0007 260.715 48.0007 260.715 48.0007M266.136 63.779L258.974 49.3886C258.928 48.3934 259.696 47.5483 260.691 47.5012L260.715 48.0007M266.136 63.779C268.737 65.4971 272.277 65.0502 274.378 62.7409C276.749 60.1338 276.558 56.0848 273.951 53.7135C273.372 53.187 272.709 52.7754 271.982 52.4907L271.982 52.4906C271.479 52.2938 271.149 51.8061 271.154 51.2652L270.654 51.2607L271.154 51.2651C271.178 48.5635 270.047 45.9736 268.052 44.1585C264.181 40.6373 258.168 40.9222 254.647 44.7933C254.416 45.0472 254.19 45.3256 253.976 45.6209C253.622 46.1096 252.979 46.2913 252.421 46.06L252.421 46.06C251.793 45.7995 251.139 45.6524 250.484 45.6115L249.914 45.5759L249.954 46.1452L250.648 56.139L250.682 56.627L251.171 56.6038L259.298 56.2191L259.797 56.1954L259.773 55.696L259.474 49.3651M266.136 63.779L259.474 49.3651M260.715 48.0007C259.996 48.0348 259.44 48.6455 259.474 49.365C259.474 49.365 259.474 49.3651 259.474 49.3651M260.715 48.0007L259.474 49.3651M273.718 50.1532L273.741 50.4203L273.976 50.5492C274.597 50.8894 275.176 51.3023 275.705 51.7841C279.375 55.1224 279.645 60.8254 276.307 64.4953C273.637 67.4304 269.491 68.2414 265.991 66.6673L265.685 66.5293L265.441 66.7618C261.865 70.1772 256.534 70.8389 252.278 68.616L251.486 68.2022L251.548 69.0938L252.231 78.9308C252.231 78.9308 252.231 78.9308 252.231 78.9309C252.255 79.2759 252.141 79.6162 251.914 79.8772C251.687 80.1381 251.366 80.2981 251.021 80.3221L242.023 80.9475C241.659 80.9728 241.321 80.8466 241.068 80.6214L240.698 80.2936L240.366 80.659L222.928 99.83L222.591 100.2L222.961 100.536L224.242 101.701C224.774 102.186 224.814 103.01 224.329 103.543L218.866 109.548C218.382 110.081 217.557 110.12 217.024 109.636L170.987 67.7594C170.454 67.2748 170.415 66.4502 170.9 65.9174L176.362 59.9122C176.847 59.3794 177.671 59.3403 178.204 59.825L179.485 60.9895L179.854 61.326L180.191 60.9561L197.629 41.7851L197.961 41.4199L197.6 41.0831C197.352 40.8514 197.194 40.5268 197.185 40.1628L196.958 31.1462L196.958 31.1461C196.949 30.8005 197.078 30.4656 197.317 30.2148C197.555 29.9642 197.883 29.8183 198.229 29.8097L198.229 29.8097L212.353 29.453L212.567 29.4476L212.711 29.2896L226.409 14.2306C226.893 13.6977 227.718 13.6587 228.251 14.1433L233.588 18.9985C234.121 19.4832 234.16 20.3078 233.676 20.8406L226.946 28.2388L226.158 29.1047L227.328 29.0751L246.203 28.5985C246.203 28.5985 246.203 28.5985 246.203 28.5985C247.621 28.5629 248.807 29.6419 248.905 31.0566L249.702 42.529L249.734 42.9893L250.196 42.9943C250.86 43.0014 251.525 43.0817 252.178 43.2428L252.469 43.3147L252.67 43.0913C252.685 43.0741 252.701 43.057 252.717 43.0385C257.206 38.1043 264.873 37.7412 269.807 42.2292C272.069 44.2871 273.46 47.1272 273.718 50.1532ZM227.83 17.2863L227.46 16.9499L227.124 17.3198L216.963 28.4907L216.175 29.3565L217.345 29.327L222.337 29.2009L222.55 29.1955L222.694 29.0375L230.533 20.4202L230.869 20.0503L230.499 19.7139L227.83 17.2863ZM217.445 106.493L217.815 106.829L218.151 106.459L221.186 103.123L221.522 102.753L221.152 102.417L177.784 62.968L177.414 62.6315L177.077 63.0014L174.043 66.3377L173.706 66.7075L174.076 67.044L217.445 106.493ZM198.198 78.0118L198.568 78.3482L198.904 77.9784L213.511 61.92L213.848 61.5501L213.478 61.2137L205.115 53.6071L204.746 53.2707L204.409 53.6406L189.802 69.6989L189.466 70.0688L189.836 70.4052L198.198 78.0118ZM200.833 79.7331L200.497 80.1029L200.867 80.4394L220.292 98.1086L220.662 98.445L220.998 98.0751L240.278 76.8794L240.422 76.7214L240.407 76.5083L237.935 40.9162L237.902 40.4389L237.423 40.451L201.757 41.3517L201.543 41.3571L201.4 41.5151L182.12 62.7108L181.783 63.0807L182.153 63.4171L187.167 67.9774L187.537 68.3139L187.873 67.944L203.694 50.5512C204.178 50.0184 205.003 49.9794 205.536 50.464L216.567 60.4981C217.1 60.9827 217.139 61.8073 216.654 62.3402L200.833 79.7331ZM243.108 77.7567L243.143 78.2555L243.642 78.2209L249.04 77.8455L249.539 77.8108L249.505 77.3121L246.335 31.6818L246.302 31.2045L245.824 31.2166L200.098 32.3711L199.598 32.3838L199.61 32.8836L199.747 38.2936L199.759 38.7935L200.259 38.7809L239.083 37.8007C239.432 37.792 239.753 37.9208 239.994 38.1397C240.234 38.3587 240.393 38.6657 240.417 39.0137L240.417 39.0137L243.108 77.7567Z" fill="#231F20" stroke="black"/>
<path d="M230.523 58.4421C233.215 57.1381 234.759 54.4745 234.552 51.4903C234.285 47.6521 231.063 44.7212 227.217 44.8183C224.226 44.8937 221.72 46.682 220.676 49.4852C219.633 52.2885 220.359 55.2801 222.572 57.293C224.784 59.3059 227.831 59.7459 230.523 58.4421ZM228.951 55.195C227.902 55.7028 226.313 55.8195 224.999 54.624C223.685 53.4286 223.651 51.836 224.058 50.7442C224.464 49.6525 225.531 48.4699 227.307 48.4252C228.263 48.4011 229.141 48.7532 229.797 49.3496C230.453 49.946 230.886 50.787 230.953 51.7409C231.076 53.5131 229.999 54.6871 228.951 55.195Z" fill="#231F20"/>
<path d="M235.359 73.5019L225.052 64.1267C224.315 63.4562 223.174 63.5103 222.504 64.2474L209.718 78.3039C209.047 79.041 209.101 80.1818 209.838 80.8522L220.145 90.2274C220.882 90.8978 222.023 90.8438 222.694 90.1067L235.48 76.0501C236.15 75.3131 236.096 74.1723 235.359 73.5019ZM231.597 74.957L226.276 80.8065L218.638 73.8589L223.959 68.0094L231.597 74.957ZM213.601 79.3972L216.211 76.5279L223.849 83.4755L221.239 86.3448L213.601 79.3972Z" fill="#231F20"/>
<path d="M267.374 55.3359L267.145 55.3467C266.15 55.3938 265.381 56.2389 265.428 57.2341C265.452 57.7317 265.675 58.1727 266.016 58.4833C266.358 58.7939 266.818 58.9744 267.316 58.9507L267.544 58.9399C268.539 58.8928 269.308 58.0477 269.261 57.0525C269.214 56.0572 268.369 55.2889 267.374 55.3359Z" fill="#231F20"/>
<defs>
<radialGradient id="paint0_radial_538_6601" cx="0" cy="0" r="1" gradientUnits="userSpaceOnUse" gradientTransform="translate(138.995 145.005) scale(119.918 120.011)">
<stop stop-color="#E9DE3D"/>
<stop offset="0.65625" stop-color="#E9DE3D" stop-opacity="0.5"/>
<stop offset="1" stop-color="#0B3C6F" stop-opacity="0"/>
</radialGradient>
<radialGradient id="paint1_radial_538_6601" cx="0" cy="0" r="1" gradientUnits="userSpaceOnUse" gradientTransform="translate(142.756 110.86) scale(105.72 106.178)">
<stop stop-color="#00B3DC"/>
<stop offset="1" stop-color="#056DB0"/>
</radialGradient>
<linearGradient id="paint2_linear_538_6601" x1="81.1967" y1="10.2102" x2="101.352" y2="261.84" gradientUnits="userSpaceOnUse">
<stop stop-color="#F2F236"/>
<stop offset="1" stop-color="#F2F236" stop-opacity="0"/>
</linearGradient>
<linearGradient id="paint3_linear_538_6601" x1="178.947" y1="2.38002" x2="199.103" y2="254.01" gradientUnits="userSpaceOnUse">
<stop stop-color="#F2F236"/>
<stop offset="1" stop-color="#F2F236" stop-opacity="0"/>
</linearGradient>
<linearGradient id="paint4_linear_538_6601" x1="186.709" y1="1.75827" x2="206.864" y2="253.388" gradientUnits="userSpaceOnUse">
<stop stop-color="#F2F236"/>
<stop offset="1" stop-color="#F2F236" stop-opacity="0"/>
</linearGradient>
<linearGradient id="paint5_linear_538_6601" x1="125.67" y1="6.64763" x2="145.826" y2="258.278" gradientUnits="userSpaceOnUse">
<stop stop-color="#F2F236"/>
<stop offset="1" stop-color="#F2F236" stop-opacity="0"/>
</linearGradient>
<linearGradient id="paint6_linear_538_6601" x1="159.4" y1="3.9453" x2="179.556" y2="255.576" gradientUnits="userSpaceOnUse">
<stop stop-color="#F2F236"/>
<stop offset="1" stop-color="#F2F236" stop-opacity="0"/>
</linearGradient>
<linearGradient id="paint7_linear_538_6601" x1="109.643" y1="7.93121" x2="129.799" y2="259.562" gradientUnits="userSpaceOnUse">
<stop stop-color="#F2F236"/>
<stop offset="1" stop-color="#F2F236" stop-opacity="0"/>
</linearGradient>
</defs>
</svg>
