<svg width="279" height="72" viewBox="0 0 279 72" fill="none" xmlns="http://www.w3.org/2000/svg">
<g filter="url(#filter0_d_615_1652)">
<rect x="4.6001" width="269.4" height="63" rx="22" fill="#2338FC" shape-rendering="crispEdges"/>
<rect x="5.7001" y="1.1" width="267.2" height="60.8" rx="20.9" stroke="black" stroke-width="2.2" shape-rendering="crispEdges"/>
<g filter="url(#filter1_d_615_1652)">
<path d="M76.2793 25.18L71.4913 46.204C71.3953 46.588 71.1913 46.9 70.8793 47.14C70.5913 47.38 70.2553 47.5 69.8713 47.5H68.5753C68.2153 47.5 67.8913 47.392 67.6033 47.176C67.3153 46.96 67.1113 46.684 66.9913 46.348L66.8473 45.88C66.5353 44.896 66.1753 43.756 65.7673 42.46C65.3833 41.164 64.9753 39.808 64.5433 38.392C64.5193 38.296 64.4593 38.248 64.3633 38.248C64.2913 38.248 64.2433 38.296 64.2193 38.392C63.8833 39.448 63.5593 40.504 63.2473 41.56C62.9353 42.592 62.6473 43.528 62.3833 44.368C62.1433 45.208 61.9393 45.868 61.7713 46.348C61.6753 46.66 61.4713 46.936 61.1593 47.176C60.8713 47.392 60.5473 47.5 60.1873 47.5H58.8553C58.4713 47.5 58.1233 47.38 57.8113 47.14C57.5233 46.9 57.3433 46.588 57.2713 46.204L52.4833 25.18C52.3873 24.7 52.4833 24.232 52.7713 23.776C52.9633 23.584 53.1673 23.44 53.3833 23.344C53.5993 23.224 53.8393 23.164 54.1033 23.164H55.1113C55.4953 23.164 55.8313 23.284 56.1193 23.524C56.4313 23.764 56.6353 24.064 56.7313 24.424L59.6473 37.456C59.6713 37.528 59.7313 37.564 59.8273 37.564C59.9233 37.564 59.9953 37.528 60.0433 37.456C60.0433 37.456 60.1153 37.192 60.2593 36.664C60.4273 36.136 60.6433 35.44 60.9073 34.576C61.1713 33.688 61.4713 32.704 61.8073 31.624C62.1433 30.544 62.4793 29.452 62.8153 28.348C62.9353 28.012 63.1273 27.736 63.3913 27.52C63.6553 27.28 63.9793 27.16 64.3633 27.16C64.7713 27.16 65.1073 27.28 65.3713 27.52C65.6593 27.736 65.8513 28.024 65.9473 28.384L68.7193 37.456C68.7673 37.528 68.8393 37.564 68.9353 37.564C69.0313 37.564 69.0913 37.528 69.1153 37.456C69.4273 36.04 69.7393 34.636 70.0513 33.244C70.3633 31.852 70.6513 30.556 70.9153 29.356C71.2033 28.156 71.4433 27.124 71.6353 26.26C71.8273 25.396 71.9593 24.784 72.0313 24.424C72.1273 24.064 72.3193 23.764 72.6073 23.524C72.9193 23.284 73.2673 23.164 73.6513 23.164H74.6593C74.9233 23.164 75.1633 23.224 75.3793 23.344C75.5953 23.44 75.7873 23.584 75.9553 23.776C76.2913 24.208 76.3993 24.676 76.2793 25.18ZM91.1434 36.808C91.1434 37.528 90.9634 38.2 90.6034 38.824C90.2434 39.424 89.7634 39.916 89.1634 40.3C88.5634 40.66 87.8914 40.84 87.1474 40.84H82.8994C82.7794 40.84 82.6594 40.888 82.5394 40.984C82.4434 41.056 82.3954 41.152 82.3954 41.272V42.784C82.3954 42.904 82.4434 43.012 82.5394 43.108C82.6594 43.204 82.7794 43.252 82.8994 43.252H87.1474C87.6034 43.252 87.9874 43.408 88.2994 43.72C88.6354 44.032 88.8034 44.428 88.8034 44.908V45.844C88.8034 46.3 88.6354 46.696 88.2994 47.032C87.9874 47.344 87.6034 47.5 87.1474 47.5H82.1434C81.0394 47.5 80.0914 47.116 79.2994 46.348C78.5074 45.556 78.1114 44.596 78.1114 43.468V32.884C78.1114 32.14 78.2914 31.468 78.6514 30.868C79.0354 30.268 79.5274 29.788 80.1274 29.428C80.7274 29.044 81.3994 28.852 82.1434 28.852H87.1474C87.8914 28.852 88.5634 29.044 89.1634 29.428C89.7634 29.788 90.2434 30.268 90.6034 30.868C90.9634 31.468 91.1434 32.14 91.1434 32.884V36.808ZM86.8954 36.088V33.64C86.8954 33.496 86.8354 33.376 86.7154 33.28C86.6194 33.184 86.5114 33.136 86.3914 33.136H82.8994C82.7794 33.136 82.6594 33.184 82.5394 33.28C82.4434 33.376 82.3954 33.496 82.3954 33.64V36.088C82.3954 36.184 82.4434 36.28 82.5394 36.376C82.6594 36.472 82.7794 36.52 82.8994 36.52H86.3914C86.5114 36.52 86.6194 36.472 86.7154 36.376C86.8354 36.28 86.8954 36.184 86.8954 36.088ZM107.104 43.468C107.104 44.596 106.708 45.556 105.916 46.348C105.148 47.116 104.212 47.5 103.108 47.5H98.1043C97.0003 47.5 96.0523 47.116 95.2603 46.348C94.4683 45.556 94.0723 44.596 94.0723 43.468V24.82C94.0723 24.34 94.2283 23.944 94.5403 23.632C94.8763 23.32 95.2723 23.164 95.7283 23.164H96.7363C97.1923 23.164 97.5763 23.32 97.8883 23.632C98.2003 23.944 98.3563 24.34 98.3563 24.82V28.42C98.3563 28.54 98.4043 28.648 98.5003 28.744C98.6203 28.816 98.7403 28.852 98.8603 28.852H103.108C103.852 28.852 104.524 29.032 105.124 29.392C105.724 29.752 106.204 30.244 106.564 30.868C106.924 31.468 107.104 32.14 107.104 32.884V43.468ZM102.856 42.784V33.64C102.856 33.304 102.688 33.136 102.352 33.136H98.8603C98.7403 33.136 98.6203 33.184 98.5003 33.28C98.4043 33.376 98.3563 33.496 98.3563 33.64V42.784C98.3563 42.904 98.4043 43.012 98.5003 43.108C98.6203 43.204 98.7403 43.252 98.8603 43.252H102.352C102.688 43.252 102.856 43.096 102.856 42.784Z" fill="#202020"/>
</g>
<g filter="url(#filter2_d_615_1652)">
<path d="M126.684 42.748C126.684 43.612 126.468 44.404 126.036 45.124C125.604 45.844 125.028 46.42 124.308 46.852C123.588 47.284 122.796 47.5 121.932 47.5H112.32C111.864 47.5 111.468 47.344 111.132 47.032C110.82 46.696 110.664 46.3 110.664 45.844V24.82C110.664 24.34 110.82 23.944 111.132 23.632C111.468 23.32 111.864 23.164 112.32 23.164H121.932C122.796 23.164 123.588 23.38 124.308 23.812C125.028 24.244 125.604 24.82 126.036 25.54C126.468 26.26 126.684 27.064 126.684 27.952V42.748ZM122.4 42.748V27.952C122.4 27.616 122.244 27.448 121.932 27.448H115.452C115.14 27.448 114.984 27.604 114.984 27.916V42.784C114.984 43.096 115.14 43.252 115.452 43.252H121.932C122.052 43.252 122.16 43.204 122.256 43.108C122.352 42.988 122.4 42.868 122.4 42.748ZM142.645 36.808C142.645 37.528 142.465 38.2 142.105 38.824C141.745 39.424 141.265 39.916 140.665 40.3C140.065 40.66 139.393 40.84 138.649 40.84H134.401C134.281 40.84 134.161 40.888 134.041 40.984C133.945 41.056 133.897 41.152 133.897 41.272V42.784C133.897 42.904 133.945 43.012 134.041 43.108C134.161 43.204 134.281 43.252 134.401 43.252H138.649C139.105 43.252 139.489 43.408 139.801 43.72C140.137 44.032 140.305 44.428 140.305 44.908V45.844C140.305 46.3 140.137 46.696 139.801 47.032C139.489 47.344 139.105 47.5 138.649 47.5H133.645C132.541 47.5 131.593 47.116 130.801 46.348C130.009 45.556 129.613 44.596 129.613 43.468V32.884C129.613 32.14 129.793 31.468 130.153 30.868C130.537 30.268 131.029 29.788 131.629 29.428C132.229 29.044 132.901 28.852 133.645 28.852H138.649C139.393 28.852 140.065 29.044 140.665 29.428C141.265 29.788 141.745 30.268 142.105 30.868C142.465 31.468 142.645 32.14 142.645 32.884V36.808ZM138.397 36.088V33.64C138.397 33.496 138.337 33.376 138.217 33.28C138.121 33.184 138.013 33.136 137.893 33.136H134.401C134.281 33.136 134.161 33.184 134.041 33.28C133.945 33.376 133.897 33.496 133.897 33.64V36.088C133.897 36.184 133.945 36.28 134.041 36.376C134.161 36.472 134.281 36.52 134.401 36.52H137.893C138.013 36.52 138.121 36.472 138.217 36.376C138.337 36.28 138.397 36.184 138.397 36.088ZM158.822 30.976L154.358 46.312C154.262 46.648 154.058 46.936 153.746 47.176C153.458 47.392 153.122 47.5 152.738 47.5H151.766C151.382 47.5 151.046 47.392 150.758 47.176C150.47 46.936 150.266 46.648 150.146 46.312L145.682 30.976C145.514 30.424 145.586 29.944 145.898 29.536C146.282 29.08 146.726 28.852 147.23 28.852H148.274C148.658 28.852 148.994 28.972 149.282 29.212C149.57 29.428 149.762 29.716 149.858 30.076L152.09 37.636C152.114 37.732 152.162 37.78 152.234 37.78C152.33 37.78 152.39 37.732 152.414 37.636L154.646 30.076C154.766 29.716 154.958 29.428 155.222 29.212C155.51 28.972 155.846 28.852 156.23 28.852H157.274C157.802 28.852 158.234 29.08 158.57 29.536C158.882 29.968 158.966 30.448 158.822 30.976Z" fill="white"/>
</g>
<g filter="url(#filter3_d_615_1652)">
<path d="M178.2 25.612L168.624 42.82C168.6 42.916 168.612 43.012 168.66 43.108C168.708 43.204 168.78 43.252 168.876 43.252H176.4C176.88 43.252 177.264 43.408 177.552 43.72C177.864 44.032 178.02 44.428 178.02 44.908V45.844C178.02 46.3 177.864 46.696 177.552 47.032C177.264 47.344 176.88 47.5 176.4 47.5H163.944C163.296 47.5 162.828 47.224 162.54 46.672C162.228 46.144 162.216 45.604 162.504 45.052L172.08 27.844C172.128 27.748 172.116 27.664 172.044 27.592C171.996 27.496 171.924 27.448 171.828 27.448H164.232C163.776 27.448 163.38 27.292 163.044 26.98C162.732 26.644 162.576 26.248 162.576 25.792V24.82C162.576 24.34 162.732 23.944 163.044 23.632C163.38 23.32 163.776 23.164 164.232 23.164H176.724C177.324 23.164 177.804 23.44 178.164 23.992C178.476 24.52 178.488 25.06 178.2 25.612ZM194.305 43.468C194.305 44.596 193.909 45.556 193.117 46.348C192.349 47.116 191.413 47.5 190.309 47.5H185.305C184.201 47.5 183.253 47.116 182.461 46.348C181.669 45.556 181.273 44.596 181.273 43.468V32.884C181.273 32.14 181.453 31.468 181.813 30.868C182.197 30.244 182.689 29.752 183.289 29.392C183.889 29.032 184.561 28.852 185.305 28.852H190.309C191.053 28.852 191.725 29.032 192.325 29.392C192.925 29.752 193.405 30.244 193.765 30.868C194.125 31.468 194.305 32.14 194.305 32.884V43.468ZM190.057 42.784V33.64C190.057 33.496 189.997 33.376 189.877 33.28C189.781 33.184 189.673 33.136 189.553 33.136H186.061C185.941 33.136 185.821 33.184 185.701 33.28C185.605 33.376 185.557 33.496 185.557 33.64V42.784C185.557 42.904 185.605 43.012 185.701 43.108C185.821 43.204 185.941 43.252 186.061 43.252H189.553C189.673 43.252 189.781 43.204 189.877 43.108C189.997 43.012 190.057 42.904 190.057 42.784ZM210.266 45.844C210.266 46.3 210.11 46.696 209.798 47.032C209.486 47.344 209.102 47.5 208.646 47.5H207.638C207.182 47.5 206.798 47.344 206.486 47.032C206.174 46.696 206.018 46.3 206.018 45.844V33.64C206.018 33.496 205.958 33.376 205.838 33.28C205.742 33.184 205.634 33.136 205.514 33.136H202.022C201.902 33.136 201.782 33.184 201.662 33.28C201.566 33.376 201.518 33.496 201.518 33.64V45.844C201.518 46.3 201.362 46.696 201.05 47.032C200.738 47.344 200.354 47.5 199.898 47.5H198.89C198.434 47.5 198.038 47.344 197.702 47.032C197.39 46.696 197.234 46.3 197.234 45.844V32.884C197.234 32.14 197.414 31.468 197.774 30.868C198.158 30.244 198.65 29.752 199.25 29.392C199.85 29.032 200.522 28.852 201.266 28.852H206.27C207.014 28.852 207.686 29.032 208.286 29.392C208.886 29.752 209.366 30.244 209.726 30.868C210.086 31.468 210.266 32.14 210.266 32.884V45.844ZM226.227 36.808C226.227 37.528 226.047 38.2 225.687 38.824C225.327 39.424 224.847 39.916 224.247 40.3C223.647 40.66 222.975 40.84 222.231 40.84H217.983C217.863 40.84 217.743 40.888 217.623 40.984C217.527 41.056 217.479 41.152 217.479 41.272V42.784C217.479 42.904 217.527 43.012 217.623 43.108C217.743 43.204 217.863 43.252 217.983 43.252H222.231C222.687 43.252 223.071 43.408 223.383 43.72C223.719 44.032 223.887 44.428 223.887 44.908V45.844C223.887 46.3 223.719 46.696 223.383 47.032C223.071 47.344 222.687 47.5 222.231 47.5H217.227C216.123 47.5 215.175 47.116 214.383 46.348C213.591 45.556 213.195 44.596 213.195 43.468V32.884C213.195 32.14 213.375 31.468 213.735 30.868C214.119 30.268 214.611 29.788 215.211 29.428C215.811 29.044 216.483 28.852 217.227 28.852H222.231C222.975 28.852 223.647 29.044 224.247 29.428C224.847 29.788 225.327 30.268 225.687 30.868C226.047 31.468 226.227 32.14 226.227 32.884V36.808ZM221.979 36.088V33.64C221.979 33.496 221.919 33.376 221.799 33.28C221.703 33.184 221.595 33.136 221.475 33.136H217.983C217.863 33.136 217.743 33.184 217.623 33.28C217.527 33.376 217.479 33.496 217.479 33.64V36.088C217.479 36.184 217.527 36.28 217.623 36.376C217.743 36.472 217.863 36.52 217.983 36.52H221.475C221.595 36.52 221.703 36.472 221.799 36.376C221.919 36.28 221.979 36.184 221.979 36.088Z" fill="#DDDDDD"/>
</g>
</g>
<defs>
<filter id="filter0_d_615_1652" x="0.200098" y="0" width="278.2" height="71.8" filterUnits="userSpaceOnUse" color-interpolation-filters="sRGB">
<feFlood flood-opacity="0" result="BackgroundImageFix"/>
<feColorMatrix in="SourceAlpha" type="matrix" values="0 0 0 0 0 0 0 0 0 0 0 0 0 0 0 0 0 0 127 0" result="hardAlpha"/>
<feOffset dy="4.4"/>
<feGaussianBlur stdDeviation="2.2"/>
<feComposite in2="hardAlpha" operator="out"/>
<feColorMatrix type="matrix" values="0 0 0 0 0 0 0 0 0 0 0 0 0 0 0 0 0 0 0.25 0"/>
<feBlend mode="normal" in2="BackgroundImageFix" result="effect1_dropShadow_615_1652"/>
<feBlend mode="normal" in="SourceGraphic" in2="effect1_dropShadow_615_1652" result="shape"/>
</filter>
<filter id="filter1_d_615_1652" x="47.9394" y="23.1639" width="63.5651" height="33.1361" filterUnits="userSpaceOnUse" color-interpolation-filters="sRGB">
<feFlood flood-opacity="0" result="BackgroundImageFix"/>
<feColorMatrix in="SourceAlpha" type="matrix" values="0 0 0 0 0 0 0 0 0 0 0 0 0 0 0 0 0 0 127 0" result="hardAlpha"/>
<feOffset dy="4.4"/>
<feGaussianBlur stdDeviation="2.2"/>
<feComposite in2="hardAlpha" operator="out"/>
<feColorMatrix type="matrix" values="0 0 0 0 0 0 0 0 0 0 0 0 0 0 0 0 0 0 0.25 0"/>
<feBlend mode="normal" in2="BackgroundImageFix" result="effect1_dropShadow_615_1652"/>
<feBlend mode="normal" in="SourceGraphic" in2="effect1_dropShadow_615_1652" result="shape"/>
</filter>
<filter id="filter2_d_615_1652" x="106.264" y="23.1639" width="57.174" height="33.1361" filterUnits="userSpaceOnUse" color-interpolation-filters="sRGB">
<feFlood flood-opacity="0" result="BackgroundImageFix"/>
<feColorMatrix in="SourceAlpha" type="matrix" values="0 0 0 0 0 0 0 0 0 0 0 0 0 0 0 0 0 0 127 0" result="hardAlpha"/>
<feOffset dy="4.4"/>
<feGaussianBlur stdDeviation="2.2"/>
<feComposite in2="hardAlpha" operator="out"/>
<feColorMatrix type="matrix" values="0 0 0 0 0 0 0 0 0 0 0 0 0 0 0 0 0 0 0.25 0"/>
<feBlend mode="normal" in2="BackgroundImageFix" result="effect1_dropShadow_615_1652"/>
<feBlend mode="normal" in="SourceGraphic" in2="effect1_dropShadow_615_1652" result="shape"/>
</filter>
<filter id="filter3_d_615_1652" x="157.672" y="23.1639" width="72.9553" height="33.1361" filterUnits="userSpaceOnUse" color-interpolation-filters="sRGB">
<feFlood flood-opacity="0" result="BackgroundImageFix"/>
<feColorMatrix in="SourceAlpha" type="matrix" values="0 0 0 0 0 0 0 0 0 0 0 0 0 0 0 0 0 0 127 0" result="hardAlpha"/>
<feOffset dy="4.4"/>
<feGaussianBlur stdDeviation="2.2"/>
<feComposite in2="hardAlpha" operator="out"/>
<feColorMatrix type="matrix" values="0 0 0 0 0 0 0 0 0 0 0 0 0 0 0 0 0 0 0.25 0"/>
<feBlend mode="normal" in2="BackgroundImageFix" result="effect1_dropShadow_615_1652"/>
<feBlend mode="normal" in="SourceGraphic" in2="effect1_dropShadow_615_1652" result="shape"/>
</filter>
</defs>
</svg>
