<svg width="267" height="104" viewBox="0 0 267 104" fill="none" xmlns="http://www.w3.org/2000/svg">
<g filter="url(#filter0_d_1030_2124)">
<rect x="4" width="259" height="96" rx="20" fill="#EFF247" shape-rendering="crispEdges"/>
<rect x="5" y="1" width="257" height="94" rx="19" stroke="black" stroke-width="2" shape-rendering="crispEdges"/>
<path d="M71.9819 39.424C71.9819 39.9147 71.5552 40.16 70.7019 40.16C69.8485 40.16 69.4219 39.9147 69.4219 39.424V32.096C68.3339 31.9253 67.5232 31.4987 66.9899 30.816C66.4565 30.1333 66.0192 29.12 65.6779 27.776L63.1819 17.92C62.9899 17.2373 62.8939 16.8427 62.8939 16.736C62.8939 16.352 63.2885 16.16 64.0779 16.16C64.8885 16.16 65.3472 16.4053 65.4539 16.896L68.1739 27.424C68.4085 28.32 68.6859 28.96 69.0059 29.344C69.3472 29.728 69.9125 29.92 70.7019 29.92C71.4912 29.92 72.0459 29.728 72.3659 29.344C72.7072 28.96 72.9952 28.32 73.2299 27.424L75.9499 16.896C76.0565 16.4053 76.5045 16.16 77.2939 16.16C78.1045 16.16 78.5099 16.352 78.5099 16.736C78.5099 16.8427 78.4139 17.2373 78.2219 17.92L75.7259 27.776C75.3845 29.12 74.9472 30.1333 74.4139 30.816C73.8805 31.4987 73.0699 31.9253 71.9819 32.096V39.424ZM92.8866 35.744V25.056C92.8866 23.392 91.4253 22.56 88.5026 22.56C85.6013 22.56 84.1506 23.392 84.1506 25.056V35.744C84.1506 37.408 85.6013 38.24 88.5026 38.24C91.4253 38.24 92.8866 37.408 92.8866 35.744ZM95.4466 25.376V35.424C95.4466 37.1947 94.8173 38.4853 93.5586 39.296C92.3 40.0853 90.6253 40.48 88.5346 40.48C86.444 40.48 84.7586 40.0853 83.4786 39.296C82.22 38.4853 81.5906 37.1947 81.5906 35.424V25.376C81.5906 23.6053 82.22 22.3253 83.4786 21.536C84.7373 20.7253 86.412 20.32 88.5026 20.32C90.5933 20.32 92.268 20.7253 93.5266 21.536C94.8066 22.3253 95.4466 23.6053 95.4466 25.376ZM116.017 21.376V35.424C116.017 37.1947 115.377 38.4853 114.097 39.296C112.838 40.0853 111.163 40.48 109.073 40.48C106.982 40.48 105.307 40.0853 104.049 39.296C102.79 38.4853 102.161 37.1947 102.161 35.424V21.376C102.161 20.8853 102.587 20.64 103.441 20.64C104.294 20.64 104.721 20.8853 104.721 21.376V35.744C104.721 37.408 106.171 38.24 109.073 38.24C111.995 38.24 113.457 37.408 113.457 35.744V21.376C113.457 20.8853 113.883 20.64 114.737 20.64C115.59 20.64 116.017 20.8853 116.017 21.376ZM126.907 17.056V20.8H130.267C130.694 20.8 130.907 21.1733 130.907 21.92C130.907 22.6667 130.694 23.04 130.267 23.04H126.907V36.256C126.907 36.9387 127.067 37.5787 127.387 38.176C127.707 38.752 127.867 39.0507 127.867 39.072C127.867 39.328 127.664 39.6053 127.259 39.904C126.854 40.1813 126.512 40.32 126.235 40.32C125.787 40.32 125.36 39.936 124.955 39.168C124.55 38.3787 124.347 37.5147 124.347 36.576V23.04H121.787C121.36 23.04 121.147 22.6667 121.147 21.92C121.147 21.1733 121.36 20.8 121.787 20.8H124.347V17.056C124.347 16.5653 124.774 16.32 125.627 16.32C126.48 16.32 126.907 16.5653 126.907 17.056ZM149.235 21.376V35.424C149.235 37.1947 148.595 38.4853 147.315 39.296C146.057 40.0853 144.382 40.48 142.291 40.48C140.201 40.48 138.526 40.0853 137.267 39.296C136.009 38.4853 135.379 37.1947 135.379 35.424V21.376C135.379 20.8853 135.806 20.64 136.659 20.64C137.513 20.64 137.939 20.8853 137.939 21.376V35.744C137.939 37.408 139.39 38.24 142.291 38.24C145.214 38.24 146.675 37.408 146.675 35.744V21.376C146.675 20.8853 147.102 20.64 147.955 20.64C148.809 20.64 149.235 20.8853 149.235 21.376ZM163.23 23.04H160.446C160.019 23.04 159.806 22.6667 159.806 21.92C159.806 21.1733 160.019 20.8 160.446 20.8H163.23C165.32 20.8 166.995 21.2053 168.254 22.016C169.512 22.8053 170.142 24.0853 170.142 25.856V35.424C170.142 37.1947 169.502 38.4853 168.222 39.296C166.963 40.0853 165.288 40.48 163.198 40.48C161.107 40.48 159.432 40.0853 158.174 39.296C156.915 38.4853 156.286 37.1947 156.286 35.424V15.136C156.286 14.6453 156.712 14.4 157.566 14.4C158.419 14.4 158.846 14.6453 158.846 15.136V35.744C158.846 37.408 160.296 38.24 163.198 38.24C166.12 38.24 167.582 37.408 167.582 35.744V25.536C167.582 23.872 166.131 23.04 163.23 23.04ZM190.544 25.312V26.272C190.544 28.0853 190.171 29.3333 189.424 30.016C188.677 30.6987 187.312 31.136 185.328 31.328L179.088 31.936V35.744C179.088 37.408 180.475 38.24 183.248 38.24C186.405 38.24 187.984 37.5147 187.984 36.064V34.848C187.984 34.3573 188.411 34.112 189.264 34.112C190.117 34.112 190.544 34.3573 190.544 34.848V35.744C190.544 38.9013 188.197 40.48 183.504 40.48C181.435 40.48 179.749 40.0747 178.448 39.264C177.168 38.4533 176.528 37.1733 176.528 35.424V25.376C176.528 23.6053 177.211 22.3253 178.576 21.536C179.941 20.7253 181.723 20.32 183.92 20.32C186.117 20.32 187.771 20.704 188.88 21.472C189.989 22.24 190.544 23.52 190.544 25.312ZM179.088 25.056V29.696L185.104 29.088C186.32 28.96 187.099 28.704 187.44 28.32C187.803 27.936 187.984 27.2533 187.984 26.272V25.056C187.984 23.392 186.501 22.56 183.536 22.56C180.571 22.56 179.088 23.392 179.088 25.056ZM47.6188 56.896V79.424C47.6188 79.9147 47.1921 80.16 46.3388 80.16C45.4854 80.16 45.0588 79.9147 45.0588 79.424V56.896C45.0588 56.4053 45.4854 56.16 46.3388 56.16C47.1921 56.16 47.6188 56.4053 47.6188 56.896ZM68.8448 65.376V79.424C68.8448 79.9147 68.4181 80.16 67.5648 80.16C66.7114 80.16 66.2848 79.9147 66.2848 79.424V65.056C66.2848 63.392 64.8234 62.56 61.9008 62.56C58.9994 62.56 57.5488 63.392 57.5488 65.056V79.424C57.5488 79.9147 57.1221 80.16 56.2688 80.16C55.4154 80.16 54.9888 79.9147 54.9888 79.424V65.376C54.9888 63.6053 55.6181 62.3253 56.8768 61.536C58.1354 60.7253 59.8101 60.32 61.9008 60.32C63.9914 60.32 65.6661 60.7253 66.9248 61.536C68.2048 62.3253 68.8448 63.6053 68.8448 65.376ZM74.935 60.8H77.175V58.976C77.175 55.6053 79.3723 53.92 83.767 53.92H84.887C85.3137 53.92 85.527 54.2933 85.527 55.04C85.527 55.7867 85.3137 56.16 84.887 56.16H83.767C81.079 56.16 79.735 56.992 79.735 58.656V60.8H83.415C83.8417 60.8 84.055 61.1733 84.055 61.92C84.055 62.6667 83.8417 63.04 83.415 63.04H79.735V83.296C79.735 84.6613 79.5323 85.7813 79.127 86.656C78.743 87.552 78.3163 88 77.847 88C77.5697 88 77.2283 87.8507 76.823 87.552C76.4177 87.2747 76.215 87.008 76.215 86.752C76.215 86.688 76.3003 86.528 76.471 86.272C76.9403 85.4613 77.175 84.3627 77.175 82.976V63.04H74.935C74.5083 63.04 74.295 62.6667 74.295 61.92C74.295 61.1733 74.5083 60.8 74.935 60.8ZM99.1835 75.744V65.056C99.1835 63.392 97.7222 62.56 94.7995 62.56C91.8982 62.56 90.4475 63.392 90.4475 65.056V75.744C90.4475 77.408 91.8982 78.24 94.7995 78.24C97.7222 78.24 99.1835 77.408 99.1835 75.744ZM101.744 65.376V75.424C101.744 77.1947 101.114 78.4853 99.8555 79.296C98.5968 80.0853 96.9222 80.48 94.8315 80.48C92.7408 80.48 91.0555 80.0853 89.7755 79.296C88.5168 78.4853 87.8875 77.1947 87.8875 75.424V65.376C87.8875 63.6053 88.5168 62.3253 89.7755 61.536C91.0342 60.7253 92.7088 60.32 94.7995 60.32C96.8902 60.32 98.5648 60.7253 99.8235 61.536C101.104 62.3253 101.744 63.6053 101.744 65.376ZM132.237 75.744V72.608C132.237 71.584 132.056 70.8587 131.693 70.432C131.352 70.0053 130.616 69.792 129.485 69.792H127.021C126.595 69.792 126.381 69.4187 126.381 68.672C126.381 67.9253 126.595 67.552 127.021 67.552H129.485C131.363 67.552 132.717 67.936 133.549 68.704C134.381 69.472 134.797 70.7733 134.797 72.608V75.424C134.797 77.1947 134.104 78.4853 132.717 79.296C131.352 80.0853 129.539 80.48 127.277 80.48C122.413 80.48 119.981 78.7947 119.981 75.424V60.896C119.981 59.1253 120.643 57.8453 121.965 57.056C123.309 56.2453 125.069 55.84 127.245 55.84C131.96 55.84 134.317 57.5253 134.317 60.896V62.656C134.317 63.1467 133.891 63.392 133.037 63.392C132.184 63.392 131.757 63.1467 131.757 62.656V60.576C131.757 58.912 130.221 58.08 127.149 58.08C124.077 58.08 122.541 58.912 122.541 60.576V75.744C122.541 77.408 124.152 78.24 127.373 78.24C130.616 78.24 132.237 77.408 132.237 75.744ZM148.96 80H145.216C143.338 80 141.984 79.616 141.152 78.848C140.32 78.08 139.904 76.7787 139.904 74.944V74.688C139.904 72.8747 140.277 71.6267 141.024 70.944C141.77 70.2613 143.104 69.824 145.024 69.632L150.56 69.088V65.536C150.56 63.872 149.109 63.04 146.208 63.04H141.824C141.397 63.04 141.184 62.6667 141.184 61.92C141.184 61.1733 141.397 60.8 141.824 60.8H146.208C148.298 60.8 149.973 61.2053 151.232 62.016C152.49 62.8053 153.12 64.0853 153.12 65.856V75.296C153.12 76.6827 153.365 77.7813 153.856 78.592C154.005 78.848 154.08 79.008 154.08 79.072C154.08 79.328 153.877 79.6053 153.472 79.904C153.066 80.1813 152.725 80.32 152.448 80.32C151.978 80.32 151.541 79.8827 151.136 79.008C150.752 78.112 150.56 76.9813 150.56 75.616V71.328L145.216 71.872C144.064 72 143.317 72.256 142.976 72.64C142.634 73.024 142.464 73.7067 142.464 74.688V74.944C142.464 75.968 142.634 76.6933 142.976 77.12C143.338 77.5467 144.085 77.76 145.216 77.76H148.96C149.386 77.76 149.6 78.1333 149.6 78.88C149.6 79.6267 149.386 80 148.96 80ZM163.985 57.056V60.8H167.345C167.772 60.8 167.985 61.1733 167.985 61.92C167.985 62.6667 167.772 63.04 167.345 63.04H163.985V76.256C163.985 76.9387 164.145 77.5787 164.465 78.176C164.785 78.752 164.945 79.0507 164.945 79.072C164.945 79.328 164.742 79.6053 164.337 79.904C163.932 80.1813 163.59 80.32 163.313 80.32C162.865 80.32 162.438 79.936 162.033 79.168C161.628 78.3787 161.425 77.5147 161.425 76.576V63.04H158.865C158.438 63.04 158.225 62.6667 158.225 61.92C158.225 61.1733 158.438 60.8 158.865 60.8H161.425V57.056C161.425 56.5653 161.852 56.32 162.705 56.32C163.558 56.32 163.985 56.5653 163.985 57.056ZM186.634 65.376V79.424C186.634 79.9147 186.207 80.16 185.354 80.16C184.5 80.16 184.074 79.9147 184.074 79.424V65.056C184.074 63.392 182.612 62.56 179.69 62.56C176.788 62.56 175.338 63.392 175.338 65.056V79.424C175.338 79.9147 174.911 80.16 174.058 80.16C173.204 80.16 172.778 79.9147 172.778 79.424V55.136C172.778 54.6453 173.204 54.4 174.058 54.4C174.911 54.4 175.338 54.6453 175.338 55.136V61.632C176.511 60.7573 178.047 60.32 179.946 60.32C181.866 60.32 183.455 60.7253 184.714 61.536C185.994 62.3253 186.634 63.6053 186.634 65.376ZM207.372 65.312V66.272C207.372 68.0853 206.999 69.3333 206.252 70.016C205.506 70.6987 204.14 71.136 202.156 71.328L195.916 71.936V75.744C195.916 77.408 197.303 78.24 200.076 78.24C203.234 78.24 204.812 77.5147 204.812 76.064V74.848C204.812 74.3573 205.239 74.112 206.092 74.112C206.946 74.112 207.372 74.3573 207.372 74.848V75.744C207.372 78.9013 205.026 80.48 200.332 80.48C198.263 80.48 196.578 80.0747 195.276 79.264C193.996 78.4533 193.356 77.1733 193.356 75.424V65.376C193.356 63.6053 194.039 62.3253 195.404 61.536C196.77 60.7253 198.551 60.32 200.748 60.32C202.946 60.32 204.599 60.704 205.708 61.472C206.818 62.24 207.372 63.52 207.372 65.312ZM195.916 65.056V69.696L201.932 69.088C203.148 68.96 203.927 68.704 204.268 68.32C204.631 67.936 204.812 67.2533 204.812 66.272V65.056C204.812 63.392 203.33 62.56 200.364 62.56C197.399 62.56 195.916 63.392 195.916 65.056ZM222.595 66.656V65.056C222.595 63.392 221.603 62.56 219.619 62.56C217.635 62.56 216.643 63.392 216.643 65.056V79.744C216.643 80.2347 216.216 80.48 215.363 80.48C214.509 80.48 214.083 80.2347 214.083 79.744V65.376C214.083 63.6053 214.584 62.3253 215.587 61.536C216.611 60.7253 217.955 60.32 219.619 60.32C223.309 60.32 225.155 61.984 225.155 65.312V66.656C225.155 67.1467 224.728 67.392 223.875 67.392C223.021 67.392 222.595 67.1467 222.595 66.656Z" fill="#202020"/>
</g>
<defs>
<filter id="filter0_d_1030_2124" x="0" y="0" width="267" height="104" filterUnits="userSpaceOnUse" color-interpolation-filters="sRGB">
<feFlood flood-opacity="0" result="BackgroundImageFix"/>
<feColorMatrix in="SourceAlpha" type="matrix" values="0 0 0 0 0 0 0 0 0 0 0 0 0 0 0 0 0 0 127 0" result="hardAlpha"/>
<feOffset dy="4"/>
<feGaussianBlur stdDeviation="2"/>
<feComposite in2="hardAlpha" operator="out"/>
<feColorMatrix type="matrix" values="0 0 0 0 0 0 0 0 0 0 0 0 0 0 0 0 0 0 0.25 0"/>
<feBlend mode="normal" in2="BackgroundImageFix" result="effect1_dropShadow_1030_2124"/>
<feBlend mode="normal" in="SourceGraphic" in2="effect1_dropShadow_1030_2124" result="shape"/>
</filter>
</defs>
</svg>
