<svg width="164" height="52" viewBox="0 0 164 52" fill="none" xmlns="http://www.w3.org/2000/svg">
<g filter="url(#filter0_d_1249_1780)">
<path d="M25.8703 17.16L21.6143 35.848C21.5289 36.1893 21.3476 36.4667 21.0703 36.68C20.8143 36.8933 20.5156 37 20.1743 37H19.0223C18.7023 37 18.4143 36.904 18.1583 36.712C17.9023 36.52 17.7209 36.2747 17.6143 35.976L17.4863 35.56C17.2089 34.6853 16.8889 33.672 16.5263 32.52C16.1849 31.368 15.8223 30.1627 15.4383 28.904C15.4169 28.8187 15.3636 28.776 15.2783 28.776C15.2143 28.776 15.1716 28.8187 15.1503 28.904C14.8516 29.8427 14.5636 30.7813 14.2863 31.72C14.0089 32.6373 13.7529 33.4693 13.5183 34.216C13.3049 34.9627 13.1236 35.5493 12.9743 35.976C12.8889 36.2533 12.7076 36.4987 12.4303 36.712C12.1743 36.904 11.8863 37 11.5663 37H10.3823C10.0409 37 9.73158 36.8933 9.45425 36.68C9.19825 36.4667 9.03825 36.1893 8.97425 35.848L4.71825 17.16C4.63292 16.7333 4.71825 16.3173 4.97425 15.912C5.14492 15.7413 5.32625 15.6133 5.51825 15.528C5.71025 15.4213 5.92358 15.368 6.15825 15.368H7.05425C7.39558 15.368 7.69425 15.4747 7.95025 15.688C8.22758 15.9013 8.40892 16.168 8.49425 16.488L11.0863 28.072C11.1076 28.136 11.1609 28.168 11.2463 28.168C11.3316 28.168 11.3956 28.136 11.4383 28.072C11.4383 28.072 11.5023 27.8373 11.6302 27.368C11.7796 26.8987 11.9716 26.28 12.2063 25.512C12.4409 24.7227 12.7076 23.848 13.0063 22.888C13.3049 21.928 13.6036 20.9573 13.9023 19.976C14.0089 19.6773 14.1796 19.432 14.4143 19.24C14.6489 19.0267 14.9369 18.92 15.2783 18.92C15.6409 18.92 15.9396 19.0267 16.1743 19.24C16.4303 19.432 16.6009 19.688 16.6863 20.008L19.1503 28.072C19.1929 28.136 19.2569 28.168 19.3423 28.168C19.4276 28.168 19.4809 28.136 19.5023 28.072C19.7796 26.8133 20.0569 25.5653 20.3343 24.328C20.6116 23.0907 20.8676 21.9387 21.1023 20.872C21.3583 19.8053 21.5716 18.888 21.7423 18.12C21.9129 17.352 22.0303 16.808 22.0943 16.488C22.1796 16.168 22.3503 15.9013 22.6063 15.688C22.8836 15.4747 23.1929 15.368 23.5343 15.368H24.4303C24.6649 15.368 24.8783 15.4213 25.0703 15.528C25.2623 15.6133 25.4329 15.7413 25.5823 15.912C25.8809 16.296 25.9769 16.712 25.8703 17.16ZM39.0828 27.496C39.0828 28.136 38.9228 28.7333 38.6028 29.288C38.2828 29.8213 37.8561 30.2587 37.3228 30.6C36.7894 30.92 36.1921 31.08 35.5308 31.08H31.7548C31.6481 31.08 31.5414 31.1227 31.4348 31.208C31.3494 31.272 31.3068 31.3573 31.3068 31.464V32.808C31.3068 32.9147 31.3494 33.0107 31.4348 33.096C31.5414 33.1813 31.6481 33.224 31.7548 33.224H35.5308C35.9361 33.224 36.2774 33.3627 36.5548 33.64C36.8534 33.9173 37.0028 34.2693 37.0028 34.696V35.528C37.0028 35.9333 36.8534 36.2853 36.5548 36.584C36.2774 36.8613 35.9361 37 35.5308 37H31.0828C30.1014 37 29.2588 36.6587 28.5548 35.976C27.8508 35.272 27.4988 34.4187 27.4988 33.416V24.008C27.4988 23.3467 27.6588 22.7493 27.9788 22.216C28.3201 21.6827 28.7574 21.256 29.2908 20.936C29.8241 20.5947 30.4214 20.424 31.0828 20.424H35.5308C36.1921 20.424 36.7894 20.5947 37.3228 20.936C37.8561 21.256 38.2828 21.6827 38.6028 22.216C38.9228 22.7493 39.0828 23.3467 39.0828 24.008V27.496ZM35.3068 26.856V24.68C35.3068 24.552 35.2534 24.4453 35.1468 24.36C35.0614 24.2747 34.9654 24.232 34.8588 24.232H31.7548C31.6481 24.232 31.5414 24.2747 31.4348 24.36C31.3494 24.4453 31.3068 24.552 31.3068 24.68V26.856C31.3068 26.9413 31.3494 27.0267 31.4348 27.112C31.5414 27.1973 31.6481 27.24 31.7548 27.24H34.8588C34.9654 27.24 35.0614 27.1973 35.1468 27.112C35.2534 27.0267 35.3068 26.9413 35.3068 26.856ZM53.2703 33.416C53.2703 34.4187 52.9183 35.272 52.2143 35.976C51.5316 36.6587 50.6996 37 49.7183 37H45.2703C44.2889 37 43.4463 36.6587 42.7423 35.976C42.0383 35.272 41.6863 34.4187 41.6863 33.416V16.84C41.6863 16.4133 41.8249 16.0613 42.1023 15.784C42.4009 15.5067 42.7529 15.368 43.1583 15.368H44.0543C44.4596 15.368 44.8009 15.5067 45.0783 15.784C45.3556 16.0613 45.4943 16.4133 45.4943 16.84V20.04C45.4943 20.1467 45.5369 20.2427 45.6223 20.328C45.7289 20.392 45.8356 20.424 45.9423 20.424H49.7183C50.3796 20.424 50.9769 20.584 51.5103 20.904C52.0436 21.224 52.4703 21.6613 52.7903 22.216C53.1103 22.7493 53.2703 23.3467 53.2703 24.008V33.416ZM49.4943 32.808V24.68C49.4943 24.3813 49.3449 24.232 49.0463 24.232H45.9423C45.8356 24.232 45.7289 24.2747 45.6223 24.36C45.5369 24.4453 45.4943 24.552 45.4943 24.68V32.808C45.4943 32.9147 45.5369 33.0107 45.6223 33.096C45.7289 33.1813 45.8356 33.224 45.9423 33.224H49.0463C49.3449 33.224 49.4943 33.0853 49.4943 32.808Z" fill="#202020"/>
<path d="M70.7856 32.776C70.7856 33.544 70.5936 34.248 70.2096 34.888C69.8256 35.528 69.3136 36.04 68.6736 36.424C68.0336 36.808 67.3296 37 66.5616 37H58.0176C57.6123 37 57.2603 36.8613 56.9616 36.584C56.6843 36.2853 56.5456 35.9333 56.5456 35.528V16.84C56.5456 16.4133 56.6843 16.0613 56.9616 15.784C57.2603 15.5067 57.6123 15.368 58.0176 15.368H66.5616C67.3296 15.368 68.0336 15.56 68.6736 15.944C69.3136 16.328 69.8256 16.84 70.2096 17.48C70.5936 18.12 70.7856 18.8347 70.7856 19.624V32.776ZM66.9776 32.776V19.624C66.9776 19.3253 66.839 19.176 66.5616 19.176H60.8016C60.5243 19.176 60.3856 19.3147 60.3856 19.592V32.808C60.3856 33.0853 60.5243 33.224 60.8016 33.224H66.5616C66.6683 33.224 66.7643 33.1813 66.8496 33.096C66.935 32.9893 66.9776 32.8827 66.9776 32.776ZM84.9734 27.496C84.9734 28.136 84.8134 28.7333 84.4934 29.288C84.1734 29.8213 83.7467 30.2587 83.2134 30.6C82.68 30.92 82.0827 31.08 81.4214 31.08H77.6454C77.5387 31.08 77.432 31.1227 77.3254 31.208C77.24 31.272 77.1974 31.3573 77.1974 31.464V32.808C77.1974 32.9147 77.24 33.0107 77.3254 33.096C77.432 33.1813 77.5387 33.224 77.6454 33.224H81.4214C81.8267 33.224 82.168 33.3627 82.4454 33.64C82.744 33.9173 82.8934 34.2693 82.8934 34.696V35.528C82.8934 35.9333 82.744 36.2853 82.4454 36.584C82.168 36.8613 81.8267 37 81.4214 37H76.9734C75.992 37 75.1494 36.6587 74.4454 35.976C73.7414 35.272 73.3894 34.4187 73.3894 33.416V24.008C73.3894 23.3467 73.5494 22.7493 73.8694 22.216C74.2107 21.6827 74.648 21.256 75.1814 20.936C75.7147 20.5947 76.312 20.424 76.9734 20.424H81.4214C82.0827 20.424 82.68 20.5947 83.2134 20.936C83.7467 21.256 84.1734 21.6827 84.4934 22.216C84.8134 22.7493 84.9734 23.3467 84.9734 24.008V27.496ZM81.1974 26.856V24.68C81.1974 24.552 81.144 24.4453 81.0374 24.36C80.952 24.2747 80.856 24.232 80.7494 24.232H77.6454C77.5387 24.232 77.432 24.2747 77.3254 24.36C77.24 24.4453 77.1974 24.552 77.1974 24.68V26.856C77.1974 26.9413 77.24 27.0267 77.3254 27.112C77.432 27.1973 77.5387 27.24 77.6454 27.24H80.7494C80.856 27.24 80.952 27.1973 81.0374 27.112C81.144 27.0267 81.1974 26.9413 81.1974 26.856ZM99.3529 22.312L95.3849 35.944C95.2995 36.2427 95.1182 36.4987 94.8409 36.712C94.5849 36.904 94.2862 37 93.9449 37H93.0809C92.7395 37 92.4409 36.904 92.1849 36.712C91.9289 36.4987 91.7475 36.2427 91.6409 35.944L87.6729 22.312C87.5235 21.8213 87.5875 21.3947 87.8649 21.032C88.2062 20.6267 88.6009 20.424 89.0489 20.424H89.9769C90.3182 20.424 90.6169 20.5307 90.8729 20.744C91.1289 20.936 91.2995 21.192 91.3849 21.512L93.3689 28.232C93.3902 28.3173 93.4329 28.36 93.4969 28.36C93.5822 28.36 93.6355 28.3173 93.6569 28.232L95.6409 21.512C95.7475 21.192 95.9182 20.936 96.1529 20.744C96.4089 20.5307 96.7075 20.424 97.0489 20.424H97.9769C98.4462 20.424 98.8302 20.6267 99.1289 21.032C99.4062 21.416 99.4809 21.8427 99.3529 22.312Z" fill="white"/>
<path d="M116.689 17.544L108.177 32.84C108.156 32.9253 108.166 33.0107 108.209 33.096C108.252 33.1813 108.316 33.224 108.401 33.224H115.089C115.516 33.224 115.857 33.3627 116.113 33.64C116.39 33.9173 116.529 34.2693 116.529 34.696V35.528C116.529 35.9333 116.39 36.2853 116.113 36.584C115.857 36.8613 115.516 37 115.089 37H104.017C103.441 37 103.025 36.7547 102.769 36.264C102.492 35.7947 102.481 35.3147 102.737 34.824L111.249 19.528C111.292 19.4427 111.281 19.368 111.217 19.304C111.174 19.2187 111.11 19.176 111.025 19.176H104.273C103.868 19.176 103.516 19.0373 103.217 18.76C102.94 18.4613 102.801 18.1093 102.801 17.704V16.84C102.801 16.4133 102.94 16.0613 103.217 15.784C103.516 15.5067 103.868 15.368 104.273 15.368H115.377C115.91 15.368 116.337 15.6133 116.657 16.104C116.934 16.5733 116.945 17.0533 116.689 17.544ZM131.005 33.416C131.005 34.4187 130.653 35.272 129.949 35.976C129.266 36.6587 128.434 37 127.453 37H123.005C122.023 37 121.181 36.6587 120.477 35.976C119.773 35.272 119.421 34.4187 119.421 33.416V24.008C119.421 23.3467 119.581 22.7493 119.901 22.216C120.242 21.6613 120.679 21.224 121.213 20.904C121.746 20.584 122.343 20.424 123.005 20.424H127.453C128.114 20.424 128.711 20.584 129.245 20.904C129.778 21.224 130.205 21.6613 130.525 22.216C130.845 22.7493 131.005 23.3467 131.005 24.008V33.416ZM127.229 32.808V24.68C127.229 24.552 127.175 24.4453 127.069 24.36C126.983 24.2747 126.887 24.232 126.781 24.232H123.677C123.57 24.232 123.463 24.2747 123.357 24.36C123.271 24.4453 123.229 24.552 123.229 24.68V32.808C123.229 32.9147 123.271 33.0107 123.357 33.096C123.463 33.1813 123.57 33.224 123.677 33.224H126.781C126.887 33.224 126.983 33.1813 127.069 33.096C127.175 33.0107 127.229 32.9147 127.229 32.808ZM145.192 35.528C145.192 35.9333 145.053 36.2853 144.776 36.584C144.499 36.8613 144.157 37 143.752 37H142.856C142.451 37 142.109 36.8613 141.832 36.584C141.555 36.2853 141.416 35.9333 141.416 35.528V24.68C141.416 24.552 141.363 24.4453 141.256 24.36C141.171 24.2747 141.075 24.232 140.968 24.232H137.864C137.757 24.232 137.651 24.2747 137.544 24.36C137.459 24.4453 137.416 24.552 137.416 24.68V35.528C137.416 35.9333 137.277 36.2853 137 36.584C136.723 36.8613 136.381 37 135.976 37H135.08C134.675 37 134.323 36.8613 134.024 36.584C133.747 36.2853 133.608 35.9333 133.608 35.528V24.008C133.608 23.3467 133.768 22.7493 134.088 22.216C134.429 21.6613 134.867 21.224 135.4 20.904C135.933 20.584 136.531 20.424 137.192 20.424H141.64C142.301 20.424 142.899 20.584 143.432 20.904C143.965 21.224 144.392 21.6613 144.712 22.216C145.032 22.7493 145.192 23.3467 145.192 24.008V35.528ZM159.38 27.496C159.38 28.136 159.22 28.7333 158.9 29.288C158.58 29.8213 158.153 30.2587 157.62 30.6C157.086 30.92 156.489 31.08 155.828 31.08H152.052C151.945 31.08 151.838 31.1227 151.732 31.208C151.646 31.272 151.604 31.3573 151.604 31.464V32.808C151.604 32.9147 151.646 33.0107 151.732 33.096C151.838 33.1813 151.945 33.224 152.052 33.224H155.828C156.233 33.224 156.574 33.3627 156.852 33.64C157.15 33.9173 157.3 34.2693 157.3 34.696V35.528C157.3 35.9333 157.15 36.2853 156.852 36.584C156.574 36.8613 156.233 37 155.828 37H151.38C150.398 37 149.556 36.6587 148.852 35.976C148.148 35.272 147.796 34.4187 147.796 33.416V24.008C147.796 23.3467 147.956 22.7493 148.276 22.216C148.617 21.6827 149.054 21.256 149.588 20.936C150.121 20.5947 150.718 20.424 151.38 20.424H155.828C156.489 20.424 157.086 20.5947 157.62 20.936C158.153 21.256 158.58 21.6827 158.9 22.216C159.22 22.7493 159.38 23.3467 159.38 24.008V27.496ZM155.604 26.856V24.68C155.604 24.552 155.55 24.4453 155.444 24.36C155.358 24.2747 155.262 24.232 155.156 24.232H152.052C151.945 24.232 151.838 24.2747 151.732 24.36C151.646 24.4453 151.604 24.552 151.604 24.68V26.856C151.604 26.9413 151.646 27.0267 151.732 27.112C151.838 27.1973 151.945 27.24 152.052 27.24H155.156C155.262 27.24 155.358 27.1973 155.444 27.112C155.55 27.0267 155.604 26.9413 155.604 26.856Z" fill="#DDDDDD"/>
</g>
<defs>
<filter id="filter0_d_1249_1780" x="-1" y="0" width="166" height="60" filterUnits="userSpaceOnUse" color-interpolation-filters="sRGB">
<feFlood flood-opacity="0" result="BackgroundImageFix"/>
<feColorMatrix in="SourceAlpha" type="matrix" values="0 0 0 0 0 0 0 0 0 0 0 0 0 0 0 0 0 0 127 0" result="hardAlpha"/>
<feOffset dy="4"/>
<feGaussianBlur stdDeviation="2"/>
<feComposite in2="hardAlpha" operator="out"/>
<feColorMatrix type="matrix" values="0 0 0 0 0 0 0 0 0 0 0 0 0 0 0 0 0 0 0.25 0"/>
<feBlend mode="normal" in2="BackgroundImageFix" result="effect1_dropShadow_1249_1780"/>
<feBlend mode="normal" in="SourceGraphic" in2="effect1_dropShadow_1249_1780" result="shape"/>
</filter>
</defs>
</svg>
