<svg width="12" height="12" viewBox="0 0 12 12" fill="none" xmlns="http://www.w3.org/2000/svg">
<path d="M11.2027 9.08148L8.02073 5.89949L11.2027 2.71751C11.5932 2.32706 11.5932 1.69376 11.2027 1.3033L10.4956 0.596194C10.1052 0.205739 9.47185 0.205738 9.08139 0.596194L5.89941 3.77817L2.71743 0.596194C2.32698 0.205738 1.69368 0.205739 1.30322 0.596194L0.596113 1.3033C0.205657 1.69376 0.205658 2.32706 0.596113 2.71751L3.77809 5.89949L0.596113 9.08148C0.205657 9.47193 0.205658 10.1052 0.596113 10.4957L1.30322 11.2028C1.69368 11.5933 2.32698 11.5933 2.71743 11.2028L5.89941 8.02082L9.08139 11.2028C9.47185 11.5933 10.1052 11.5933 10.4956 11.2028L11.2027 10.4957C11.5932 10.1052 11.5932 9.47193 11.2027 9.08148Z" fill="white"/>
</svg>
