<svg width="9" height="15" viewBox="0 0 9 15" fill="none" xmlns="http://www.w3.org/2000/svg">
<path d="M7.4375 0.5H1.3125C0.587891 0.5 0 1.08789 0 1.8125V13.1875C0 13.9121 0.587891 14.5 1.3125 14.5H7.4375C8.16211 14.5 8.75 13.9121 8.75 13.1875V1.8125C8.75 1.08789 8.16211 0.5 7.4375 0.5ZM4.375 13.625C3.89102 13.625 3.5 13.234 3.5 12.75C3.5 12.266 3.89102 11.875 4.375 11.875C4.85898 11.875 5.25 12.266 5.25 12.75C5.25 13.234 4.85898 13.625 4.375 13.625ZM7.4375 10.6719C7.4375 10.8523 7.28984 11 7.10938 11H1.64062C1.46016 11 1.3125 10.8523 1.3125 10.6719V2.14062C1.3125 1.96016 1.46016 1.8125 1.64062 1.8125H7.10938C7.28984 1.8125 7.4375 1.96016 7.4375 2.14062V10.6719Z" fill="white"/>
</svg>
